<?xml version="1.0" encoding="UTF-8"?>
<!DOCTYPE svg PUBLIC "-//W3C//DTD SVG 1.1//EN" "http://www.w3.org/Graphics/SVG/1.1/DTD/svg11.dtd">
<svg xmlns="http://www.w3.org/2000/svg" version="1.1" width="1874px" height="2294px" style="shape-rendering:geometricPrecision; text-rendering:geometricPrecision; image-rendering:optimizeQuality; fill-rule:evenodd; clip-rule:evenodd" xmlns:xlink="http://www.w3.org/1999/xlink">
<g><path style="opacity:1" fill="#000000" d="M 588.5,738.5 C 588.817,741.572 588.484,744.572 587.5,747.5C 581.814,750.055 576.147,752.388 570.5,754.5C 563.124,756.4 556.124,759.066 549.5,762.5C 539.617,765.776 530.284,770.11 521.5,775.5C 512.415,779.209 503.749,783.709 495.5,789C 494.157,791.232 492.49,793.066 490.5,794.5C 482.491,800.503 474.491,806.503 466.5,812.5C 465.833,812.5 465.5,812.833 465.5,813.5C 455.336,820.085 444.67,825.918 433.5,831C 432.809,832.067 432.309,833.234 432,834.5C 421.328,844.005 411.161,854.005 401.5,864.5C 392.024,874.154 383.024,884.154 374.5,894.5C 373.85,894.804 373.183,895.137 372.5,895.5C 367.307,873.121 358.307,852.454 345.5,833.5C 335.779,829.806 326.445,825.306 317.5,820C 316.5,819.333 315.5,819.333 314.5,820C 305.253,835.632 291.587,844.799 273.5,847.5C 247.966,845.797 233.633,832.297 230.5,807C 231.278,797.611 234.445,789.111 240,781.5C 246.712,773.288 254.212,765.954 262.5,759.5C 257.225,750.826 253.225,741.659 250.5,732C 226.04,722.385 200.707,716.552 174.5,714.5C 114.855,718.163 56.5214,728.829 -0.5,746.5C -0.5,742.833 -0.5,739.167 -0.5,735.5C 3.30126,712.893 12.8013,692.893 28,675.5C 35.5302,667.635 43.3635,660.135 51.5,653C 130.083,597.182 213.083,548.182 300.5,506C 299.5,505.667 298.5,505.333 297.5,505C 342.085,484.925 388.418,479.591 436.5,489C 479.533,499.715 515.033,522.215 543,556.5C 556.365,574.551 567.698,593.884 577,614.5C 583.247,632.648 586.914,651.314 588,670.5C 588.5,693.164 588.667,715.831 588.5,738.5 Z"/></g>
<g><path style="opacity:1" fill="#fefffe" d="M 437.5,818.5 C 441.393,808.082 438.727,799.582 429.5,793C 418.85,785.939 407.183,783.606 394.5,786C 379.116,791.949 371.616,803.115 372,819.5C 372.667,824.183 374.833,827.85 378.5,830.5C 355.379,827.435 334.045,819.602 314.5,807C 294.965,789.135 278.798,768.635 266,745.5C 265,742.5 264,739.5 263,736.5C 261.474,724.806 259.974,713.139 258.5,701.5C 260.566,706.221 264.233,709.055 269.5,710C 293.993,712.68 308.326,701.847 312.5,677.5C 312.196,663.048 305.863,652.215 293.5,645C 288.366,642.852 283.366,643.019 278.5,645.5C 280.72,640.728 283.22,636.062 286,631.5C 292.572,624.018 298.905,616.351 305,608.5C 323.421,620.296 342.254,631.463 361.5,642C 381.89,651.861 403.224,658.861 425.5,663C 448.682,666.553 471.182,664.053 493,655.5C 493.5,655.833 494,656.167 494.5,656.5C 476.689,688.987 470.522,723.653 476,760.5C 477.238,769.776 479.238,778.776 482,787.5C 468.115,799.222 453.282,809.556 437.5,818.5 Z"/></g>
<g><path style="opacity:1" fill="#000000" d="M 329.5,633.5 C 341.943,632.636 351.11,637.636 357,648.5C 357.825,650.701 357.325,652.534 355.5,654C 344.061,654.366 334.561,650.199 327,641.5C 326.018,638.225 326.851,635.559 329.5,633.5 Z"/></g>
<g><path style="opacity:1" fill="#99d2ff" d="M 258.5,701.5 C 258.453,680.294 265.12,661.627 278.5,645.5C 283.366,643.019 288.366,642.852 293.5,645C 305.863,652.215 312.196,663.048 312.5,677.5C 308.326,701.847 293.993,712.68 269.5,710C 264.233,709.055 260.566,706.221 258.5,701.5 Z"/></g>
<g><path style="opacity:1" fill="#000000" d="M 332.5,655.5 C 335.649,655.211 338.649,655.711 341.5,657C 350.646,668.214 348.313,676.047 334.5,680.5C 324.245,676.99 321.412,670.323 326,660.5C 327.965,658.45 330.132,656.783 332.5,655.5 Z"/></g>
<g><path style="opacity:1" fill="#000000" d="M 390.5,708.5 C 394.509,708.014 396.342,709.68 396,713.5C 389.759,716.809 383.593,720.309 377.5,724C 376.107,725.171 375.273,726.671 375,728.5C 375.588,736.038 376.755,743.538 378.5,751C 377.574,758.598 373.574,763.931 366.5,767C 360.628,767.931 355.795,766.098 352,761.5C 347.586,756.344 343.919,750.677 341,744.5C 340.013,740.494 341.513,738.661 345.5,739C 349.833,745.333 354.167,751.667 358.5,758C 366.4,760.953 370.4,758.119 370.5,749.5C 370.145,745.079 369.312,740.746 368,736.5C 365.81,728.504 367.977,722.004 374.5,717C 379.768,713.868 385.101,711.035 390.5,708.5 Z"/></g>
<g><path style="opacity:1" fill="#d8f6fe" d="M 374.5,894.5 C 374.657,895.873 374.49,897.207 374,898.5C 368.999,904.511 364.499,910.844 360.5,917.5C 359.833,917.5 359.5,917.833 359.5,918.5C 307.616,914.814 257.283,921.981 208.5,940C 183.222,949.807 158.889,961.473 135.5,975C 118.812,985.855 103.812,998.688 90.5,1013.5C 86.8583,1008.9 83.6916,1003.9 81,998.5C 57.6881,943.946 45.3548,886.946 44,827.5C 41,822.167 38,822.167 35,827.5C 34.8069,891.724 48.6402,952.724 76.5,1010.5C 90.0317,1032.53 107.698,1050.36 129.5,1064C 160.756,1081.5 192.756,1083 225.5,1068.5C 251.634,1062.79 275.967,1052.79 298.5,1038.5C 306.526,1034.98 314.526,1031.14 322.5,1027C 323.944,1026.22 325.277,1026.39 326.5,1027.5C 339.267,1053.7 350.933,1080.37 361.5,1107.5C 347.872,1118.32 334.206,1129.16 320.5,1140C 296.5,1155.33 272.5,1170.67 248.5,1186C 222.838,1200 196.504,1212.66 169.5,1224C 134.796,1236.21 99.1291,1241.54 62.5,1240C 40.9597,1237.86 19.9597,1233.36 -0.5,1226.5C -0.5,1066.5 -0.5,906.5 -0.5,746.5C 56.5214,728.829 114.855,718.163 174.5,714.5C 200.707,716.552 226.04,722.385 250.5,732C 253.225,741.659 257.225,750.826 262.5,759.5C 254.212,765.954 246.712,773.288 240,781.5C 234.445,789.111 231.278,797.611 230.5,807C 233.633,832.297 247.966,845.797 273.5,847.5C 291.587,844.799 305.253,835.632 314.5,820C 315.5,819.333 316.5,819.333 317.5,820C 326.445,825.306 335.779,829.806 345.5,833.5C 358.307,852.454 367.307,873.121 372.5,895.5C 373.183,895.137 373.85,894.804 374.5,894.5 Z"/></g>
<g><path style="opacity:1" fill="#000000" d="M 306.5,721.5 C 308.39,721.297 309.89,721.963 311,723.5C 312.426,740.852 319.592,755.352 332.5,767C 337.333,770.5 342.167,774 347,777.5C 347.339,781.487 345.506,782.987 341.5,782C 322.981,771.449 310.814,755.949 305,735.5C 303.966,730.543 304.466,725.876 306.5,721.5 Z"/></g>
<g><path style="opacity:0.996" fill="#468ce4" d="M 667.5,728.5 C 664.713,729.477 661.713,729.81 658.5,729.5C 658.5,801.167 658.5,872.833 658.5,944.5C 655.941,944.198 653.607,944.532 651.5,945.5C 640.167,945.5 628.833,945.5 617.5,945.5C 617.5,874.5 617.5,803.5 617.5,732.5C 634.092,730.284 650.759,728.951 667.5,728.5 Z"/></g>
<g><path style="opacity:0.998" fill="#4292e3" d="M 667.5,728.5 C 679.167,728.5 690.833,728.5 702.5,728.5C 702.5,800.833 702.5,873.167 702.5,945.5C 685.5,945.5 668.5,945.5 651.5,945.5C 653.607,944.532 655.941,944.198 658.5,944.5C 658.5,872.833 658.5,801.167 658.5,729.5C 661.713,729.81 664.713,729.477 667.5,728.5 Z"/></g>
<g><path style="opacity:0.993" fill="#3f96e3" d="M 702.5,728.5 C 705.833,728.5 709.167,728.5 712.5,728.5C 712.5,800.5 712.5,872.5 712.5,944.5C 715.713,944.19 718.713,944.523 721.5,945.5C 715.167,945.5 708.833,945.5 702.5,945.5C 702.5,873.167 702.5,800.833 702.5,728.5 Z"/></g>
<g><path style="opacity:0.997" fill="#3c99e2" d="M 712.5,728.5 C 726.167,728.5 739.833,728.5 753.5,728.5C 753.5,800.833 753.5,873.167 753.5,945.5C 742.833,945.5 732.167,945.5 721.5,945.5C 718.713,944.523 715.713,944.19 712.5,944.5C 712.5,872.5 712.5,800.5 712.5,728.5 Z"/></g>
<g><path style="opacity:1" fill="#389ee0" d="M 753.5,728.5 C 763.833,728.5 774.167,728.5 784.5,728.5C 784.5,800.5 784.5,872.5 784.5,944.5C 776.981,944.175 769.648,944.508 762.5,945.5C 759.5,945.5 756.5,945.5 753.5,945.5C 753.5,873.167 753.5,800.833 753.5,728.5 Z"/></g>
<g><path style="opacity:0.992" fill="#35a1df" d="M 784.5,728.5 C 788.833,728.5 793.167,728.5 797.5,728.5C 797.5,800.5 797.5,872.5 797.5,944.5C 795.265,944.205 793.265,944.539 791.5,945.5C 781.833,945.5 772.167,945.5 762.5,945.5C 769.648,944.508 776.981,944.175 784.5,944.5C 784.5,872.5 784.5,800.5 784.5,728.5 Z"/></g>
<g><path style="opacity:0.996" fill="#33a4df" d="M 797.5,728.5 C 807.833,728.5 818.167,728.5 828.5,728.5C 828.5,800.833 828.5,873.167 828.5,945.5C 816.167,945.5 803.833,945.5 791.5,945.5C 793.265,944.539 795.265,944.205 797.5,944.5C 797.5,872.5 797.5,800.5 797.5,728.5 Z"/></g>
<g><path style="opacity:0.995" fill="#30a7df" d="M 828.5,728.5 C 832.833,728.5 837.167,728.5 841.5,728.5C 841.5,800.5 841.5,872.5 841.5,944.5C 843.735,944.205 845.735,944.539 847.5,945.5C 841.167,945.5 834.833,945.5 828.5,945.5C 828.5,873.167 828.5,800.833 828.5,728.5 Z"/></g>
<g><path style="opacity:0.998" fill="#2dabde" d="M 841.5,728.5 C 856.167,728.5 870.833,728.5 885.5,728.5C 885.5,800.5 885.5,872.5 885.5,944.5C 891.026,944.179 896.36,944.512 901.5,945.5C 883.5,945.5 865.5,945.5 847.5,945.5C 845.735,944.539 843.735,944.205 841.5,944.5C 841.5,872.5 841.5,800.5 841.5,728.5 Z"/></g>
<g><path style="opacity:0.997" fill="#28b2dc" d="M 885.5,728.5 C 902.849,728.307 920.182,728.64 937.5,729.5C 936.503,801.429 936.17,873.429 936.5,945.5C 924.833,945.5 913.167,945.5 901.5,945.5C 896.36,944.512 891.026,944.179 885.5,944.5C 885.5,872.5 885.5,800.5 885.5,728.5 Z"/></g>
<g><path style="opacity:0.994" fill="#23b8db" d="M 937.5,729.5 C 950.988,730.685 964.322,732.685 977.5,735.5C 977.5,805.167 977.5,874.833 977.5,944.5C 981.833,944.5 986.167,944.5 990.5,944.5C 991.791,944.263 992.791,944.596 993.5,945.5C 974.5,945.5 955.5,945.5 936.5,945.5C 936.17,873.429 936.503,801.429 937.5,729.5 Z"/></g>
<g><path style="opacity:0.998" fill="#4988e6" d="M 617.5,732.5 C 617.5,803.5 617.5,874.5 617.5,945.5C 616.5,945.5 615.5,945.5 614.5,945.5C 611.375,944.521 608.042,944.187 604.5,944.5C 604.5,874.833 604.5,805.167 604.5,735.5C 608.684,734.228 613.017,733.228 617.5,732.5 Z"/></g>
<g><path style="opacity:0.996" fill="#4c84e4" d="M 604.5,735.5 C 604.5,805.167 604.5,874.833 604.5,944.5C 608.042,944.187 611.375,944.521 614.5,945.5C 605.833,945.5 597.167,945.5 588.5,945.5C 587.306,944.223 585.64,943.556 583.5,943.5C 555.18,944.458 526.846,944.792 498.5,944.5C 506.316,943.508 514.316,943.174 522.5,943.5C 531.833,943.5 541.167,943.5 550.5,943.5C 557.833,943.5 565.167,943.5 572.5,943.5C 573.163,880.158 572.496,817.158 570.5,754.5C 576.147,752.388 581.814,750.055 587.5,747.5C 588.484,744.572 588.817,741.572 588.5,738.5C 593.66,736.735 598.993,735.735 604.5,735.5 Z"/></g>
<g><path style="opacity:0.999" fill="#20bcda" d="M 977.5,735.5 C 982.444,735.754 987.111,736.754 991.5,738.5C 990.501,806.998 990.167,875.665 990.5,944.5C 986.167,944.5 981.833,944.5 977.5,944.5C 977.5,874.833 977.5,805.167 977.5,735.5 Z"/></g>
<g><path style="opacity:0.999" fill="#1dbfda" d="M 991.5,738.5 C 1001.65,740.204 1011.65,742.537 1021.5,745.5C 1021.5,812.167 1021.5,878.833 1021.5,945.5C 1012.17,945.5 1002.83,945.5 993.5,945.5C 992.791,944.596 991.791,944.263 990.5,944.5C 990.167,875.665 990.501,806.998 991.5,738.5 Z"/></g>
<g><path style="opacity:1" fill="#000000" d="M 440.5,743.5 C 442.857,743.337 445.19,743.503 447.5,744C 455.808,751.618 459.808,760.952 459.5,772C 457.835,772.788 456.169,773.122 454.5,773C 448.492,766.653 443.659,759.486 440,751.5C 439.278,748.739 439.445,746.073 440.5,743.5 Z"/></g>
<g><path style="opacity:0.996" fill="#1ac3d8" d="M 1021.5,745.5 C 1032.31,748.768 1042.97,752.435 1053.5,756.5C 1053.5,819.167 1053.5,881.833 1053.5,944.5C 1049.96,944.187 1046.62,944.521 1043.5,945.5C 1036.17,945.5 1028.83,945.5 1021.5,945.5C 1021.5,878.833 1021.5,812.167 1021.5,745.5 Z"/></g>
<g><path style="opacity:1" fill="#4f81e6" d="M 570.5,754.5 C 572.496,817.158 573.163,880.158 572.5,943.5C 565.167,943.5 557.833,943.5 550.5,943.5C 550.832,882.998 550.499,822.664 549.5,762.5C 556.124,759.066 563.124,756.4 570.5,754.5 Z"/></g>
<g><path style="opacity:1" fill="#000000" d="M 423.5,756.5 C 435.065,755.229 439.899,760.229 438,771.5C 434.175,779.165 428.341,781.332 420.5,778C 413.11,769.519 414.11,762.353 423.5,756.5 Z"/></g>
<g><path style="opacity:0.986" fill="#17c6d7" d="M 1053.5,756.5 C 1058.32,758.323 1062.99,760.323 1067.5,762.5C 1066.5,822.998 1066.17,883.664 1066.5,944.5C 1071.69,944.179 1076.69,944.513 1081.5,945.5C 1068.83,945.5 1056.17,945.5 1043.5,945.5C 1046.62,944.521 1049.96,944.187 1053.5,944.5C 1053.5,881.833 1053.5,819.167 1053.5,756.5 Z"/></g>
<g><path style="opacity:0.995" fill="#14cad7" d="M 1067.5,762.5 C 1084.51,769.174 1100.85,777.174 1116.5,786.5C 1116.5,839.167 1116.5,891.833 1116.5,944.5C 1115.51,944.328 1114.84,944.662 1114.5,945.5C 1103.5,945.5 1092.5,945.5 1081.5,945.5C 1076.69,944.513 1071.69,944.179 1066.5,944.5C 1066.17,883.664 1066.5,822.998 1067.5,762.5 Z"/></g>
<g><path style="opacity:1" fill="#527ee7" d="M 549.5,762.5 C 550.499,822.664 550.832,882.998 550.5,943.5C 541.167,943.5 531.833,943.5 522.5,943.5C 522.832,887.331 522.499,831.331 521.5,775.5C 530.284,770.11 539.617,765.776 549.5,762.5 Z"/></g>
<g><path style="opacity:1" fill="#fefffe" d="M 267.5,768.5 C 278.951,784.838 291.951,800.005 306.5,814C 293.125,836.571 274.791,841.904 251.5,830C 238.866,816.719 237.699,802.553 248,787.5C 253.733,780.265 260.233,773.932 267.5,768.5 Z"/></g>
<g><path style="opacity:1" fill="#557ae8" d="M 521.5,775.5 C 522.499,831.331 522.832,887.331 522.5,943.5C 514.316,943.174 506.316,943.508 498.5,944.5C 495.833,944.5 493.167,944.5 490.5,944.5C 490.5,894.5 490.5,844.5 490.5,794.5C 492.49,793.066 494.157,791.232 495.5,789C 503.749,783.709 512.415,779.209 521.5,775.5 Z"/></g>
<g><path style="opacity:1" fill="#99d2ff" d="M 437.5,818.5 C 419.311,829.558 399.645,833.558 378.5,830.5C 374.833,827.85 372.667,824.183 372,819.5C 371.616,803.115 379.116,791.949 394.5,786C 407.183,783.606 418.85,785.939 429.5,793C 438.727,799.582 441.393,808.082 437.5,818.5 Z"/></g>
<g><path style="opacity:0.997" fill="#0fd1d6" d="M 1116.5,786.5 C 1131.39,795.437 1145.72,805.103 1159.5,815.5C 1160.49,858.457 1160.82,901.457 1160.5,944.5C 1145.83,944.5 1131.17,944.5 1116.5,944.5C 1116.5,891.833 1116.5,839.167 1116.5,786.5 Z"/></g>
<g><path style="opacity:1" fill="#5976e9" d="M 490.5,794.5 C 490.5,844.5 490.5,894.5 490.5,944.5C 482.5,944.5 474.5,944.5 466.5,944.5C 466.5,900.5 466.5,856.5 466.5,812.5C 474.491,806.503 482.491,800.503 490.5,794.5 Z"/></g>
<g><path style="opacity:1" fill="#01e1d1" d="M 465.5,813.5 C 465.5,830.833 465.5,848.167 465.5,865.5C 443.993,865.831 422.66,865.497 401.5,864.5C 411.161,854.005 421.328,844.005 432,834.5C 432.309,833.234 432.809,832.067 433.5,831C 444.67,825.918 455.336,820.085 465.5,813.5 Z"/></g>
<g><path style="opacity:0.999" fill="#0bd6d4" d="M 1159.5,815.5 C 1170.11,823.11 1180.11,831.443 1189.5,840.5C 1189.5,875.167 1189.5,909.833 1189.5,944.5C 1179.83,944.5 1170.17,944.5 1160.5,944.5C 1160.82,901.457 1160.49,858.457 1159.5,815.5 Z"/></g>
<g><path style="opacity:1" fill="#020303" d="M 90.5,1013.5 C 106.041,1036.96 127.041,1053.8 153.5,1064C 175.995,1071.01 197.995,1069.68 219.5,1060C 248.516,1046.99 277.849,1034.82 307.5,1023.5C 314.217,1020.73 320.384,1017.06 326,1012.5C 332.84,1004.15 338.674,995.153 343.5,985.5C 347.192,978.959 351.525,972.793 356.5,967C 360.947,963.443 365.947,960.943 371.5,959.5C 382.73,963.814 385.396,971.314 379.5,982C 387.32,977.749 395.32,973.416 403.5,969C 419.207,965.204 423.873,970.704 417.5,985.5C 416.972,986.721 416.305,987.887 415.5,989C 415.833,989.167 416.167,989.333 416.5,989.5C 427.881,985.912 433.381,989.912 433,1001.5C 432.484,1004.03 431.317,1006.2 429.5,1008C 447.931,1006.52 451.931,1013.52 441.5,1029C 446.343,1029.11 451.009,1029.95 455.5,1031.5C 459.289,1036.01 459.455,1040.67 456,1045.5C 453.385,1049.78 450.385,1053.78 447,1057.5C 428.886,1072.79 410.386,1087.45 391.5,1101.5C 385.148,1105.01 379.148,1109.01 373.5,1113.5C 370.06,1115.05 366.727,1116.89 363.5,1119C 349.314,1129.7 335.314,1140.53 321.5,1151.5C 308.561,1159.11 295.895,1167.11 283.5,1175.5C 249.664,1197.43 213.997,1216.27 176.5,1232C 145.605,1243.11 113.771,1249.61 81,1251.5C 53.2308,1250.23 26.0641,1245.57 -0.5,1237.5C -0.5,1233.83 -0.5,1230.17 -0.5,1226.5C 19.9597,1233.36 40.9597,1237.86 62.5,1240C 99.1291,1241.54 134.796,1236.21 169.5,1224C 196.504,1212.66 222.838,1200 248.5,1186C 272.5,1170.67 296.5,1155.33 320.5,1140C 334.206,1129.16 347.872,1118.32 361.5,1107.5C 350.933,1080.37 339.267,1053.7 326.5,1027.5C 325.277,1026.39 323.944,1026.22 322.5,1027C 314.526,1031.14 306.526,1034.98 298.5,1038.5C 273.768,1047.71 249.434,1057.71 225.5,1068.5C 192.756,1083 160.756,1081.5 129.5,1064C 107.698,1050.36 90.0317,1032.53 76.5,1010.5C 48.6402,952.724 34.8069,891.724 35,827.5C 38,822.167 41,822.167 44,827.5C 45.3548,886.946 57.6881,943.946 81,998.5C 83.6916,1003.9 86.8583,1008.9 90.5,1013.5 Z"/></g>
<g><path style="opacity:0.995" fill="#08dad4" d="M 1189.5,840.5 C 1198.17,848.5 1206.5,856.833 1214.5,865.5C 1214.5,891.833 1214.5,918.167 1214.5,944.5C 1206.17,944.5 1197.83,944.5 1189.5,944.5C 1189.5,909.833 1189.5,875.167 1189.5,840.5 Z"/></g>
<g><path style="opacity:1" fill="#04ddd2" d="M 401.5,864.5 C 422.66,865.497 443.993,865.831 465.5,865.5C 465.5,875.167 465.5,884.833 465.5,894.5C 435.167,894.5 404.833,894.5 374.5,894.5C 383.024,884.154 392.024,874.154 401.5,864.5 Z"/></g>
<g><path style="opacity:0.988" fill="#04ded3" d="M 1214.5,865.5 C 1237.6,889.267 1257.27,915.601 1273.5,944.5C 1253.83,944.5 1234.17,944.5 1214.5,944.5C 1214.5,918.167 1214.5,891.833 1214.5,865.5 Z"/></g>
<g><path style="opacity:1" fill="#09dad4" d="M 374.5,894.5 C 404.833,894.5 435.167,894.5 465.5,894.5C 465.5,902.5 465.5,910.5 465.5,918.5C 430.329,918.832 395.329,918.498 360.5,917.5C 364.499,910.844 368.999,904.511 374,898.5C 374.49,897.207 374.657,895.873 374.5,894.5 Z"/></g>
<g><path style="opacity:1" fill="#c2f2fe" d="M 359.5,918.5 C 353.988,926.192 348.988,934.192 344.5,942.5C 336.484,955.194 329.484,968.528 323.5,982.5C 317.008,995.63 311.675,1009.3 307.5,1023.5C 277.849,1034.82 248.516,1046.99 219.5,1060C 197.995,1069.68 175.995,1071.01 153.5,1064C 127.041,1053.8 106.041,1036.96 90.5,1013.5C 103.812,998.688 118.812,985.855 135.5,975C 158.889,961.473 183.222,949.807 208.5,940C 257.283,921.981 307.616,914.814 359.5,918.5 Z"/></g>
<g><path style="opacity:1" fill="#0cd6d5" d="M 360.5,917.5 C 395.329,918.498 430.329,918.832 465.5,918.5C 465.5,927.167 465.5,935.833 465.5,944.5C 424.82,945.161 384.486,944.494 344.5,942.5C 348.988,934.192 353.988,926.192 359.5,918.5C 359.5,917.833 359.833,917.5 360.5,917.5 Z"/></g>
<g><path style="opacity:1" fill="#000000" d="M 588.5,945.5 C 588.667,990.168 588.5,1034.83 588,1079.5C 583.87,1115.96 568.37,1146.46 541.5,1171C 528.843,1182.33 514.843,1191.66 499.5,1199C 494.171,1200.33 488.838,1201.66 483.5,1203C 477.843,1203.5 472.176,1203.67 466.5,1203.5C 466.5,1201.83 466.5,1200.17 466.5,1198.5C 466.5,1182.83 466.5,1167.17 466.5,1151.5C 466.5,1138.83 466.5,1126.17 466.5,1113.5C 466.5,1109.5 466.5,1105.5 466.5,1101.5C 466.5,1078.17 466.5,1054.83 466.5,1031.5C 466.5,1016.17 466.5,1000.83 466.5,985.5C 466.5,971.833 466.5,958.167 466.5,944.5C 474.5,944.5 482.5,944.5 490.5,944.5C 493.167,944.5 495.833,944.5 498.5,944.5C 526.846,944.792 555.18,944.458 583.5,943.5C 585.64,943.556 587.306,944.223 588.5,945.5 Z"/></g>
<g><path style="opacity:1" fill="#11d1d6" d="M 466.5,812.5 C 466.5,856.5 466.5,900.5 466.5,944.5C 466.5,958.167 466.5,971.833 466.5,985.5C 450.167,985.5 433.833,985.5 417.5,985.5C 423.873,970.704 419.207,965.204 403.5,969C 395.32,973.416 387.32,977.749 379.5,982C 385.396,971.314 382.73,963.814 371.5,959.5C 365.947,960.943 360.947,963.443 356.5,967C 351.525,972.793 347.192,978.959 343.5,985.5C 336.833,985.5 330.167,985.5 323.5,985.5C 323.5,984.5 323.5,983.5 323.5,982.5C 329.484,968.528 336.484,955.194 344.5,942.5C 384.486,944.494 424.82,945.161 465.5,944.5C 465.5,935.833 465.5,927.167 465.5,918.5C 465.5,910.5 465.5,902.5 465.5,894.5C 465.5,884.833 465.5,875.167 465.5,865.5C 465.5,848.167 465.5,830.833 465.5,813.5C 465.5,812.833 465.833,812.5 466.5,812.5 Z"/></g>
<g><path style="opacity:0.998" fill="#5975e9" d="M 1116.5,944.5 C 1131.17,944.5 1145.83,944.5 1160.5,944.5C 1170.17,944.5 1179.83,944.5 1189.5,944.5C 1197.83,944.5 1206.17,944.5 1214.5,944.5C 1234.17,944.5 1253.83,944.5 1273.5,944.5C 1280.89,956.604 1287.22,969.271 1292.5,982.5C 1233.17,982.5 1173.83,982.5 1114.5,982.5C 1114.5,970.167 1114.5,957.833 1114.5,945.5C 1114.84,944.662 1115.51,944.328 1116.5,944.5 Z"/></g>
<g><path style="opacity:1" fill="#fefffe" d="M 367.5,970.5 C 369.167,970.5 370.833,970.5 372.5,970.5C 369.631,981.572 364.631,991.572 357.5,1000.5C 359.737,1005.79 363.07,1006.62 367.5,1003C 380.862,993.475 394.862,984.975 409.5,977.5C 409.833,977.667 410.167,977.833 410.5,978C 405.768,987.4 398.934,994.9 390,1000.5C 387.783,1004.74 388.95,1007.74 393.5,1009.5C 395.343,1009.24 397.343,1009.08 399.5,1009C 405.167,1006 410.833,1003 416.5,1000C 418.754,998.85 421.087,998.516 423.5,999C 418.911,1007.98 412.744,1015.81 405,1022.5C 402.783,1026.74 403.95,1029.74 408.5,1031.5C 417.374,1026.56 426.374,1021.9 435.5,1017.5C 435.833,1017.83 436.167,1018.17 436.5,1018.5C 431.673,1027.5 425.506,1035.5 418,1042.5C 416.058,1046.62 417.391,1049.28 422,1050.5C 429.506,1046.16 437.34,1042.5 445.5,1039.5C 446.167,1039.83 446.833,1040.17 447.5,1040.5C 441.355,1049.81 433.688,1057.65 424.5,1064C 407.167,1076.67 389.833,1089.33 372.5,1102C 371.552,1102.48 370.552,1102.65 369.5,1102.5C 359.065,1074.21 347.065,1046.54 333.5,1019.5C 342.667,1007.17 350.834,994.174 358,980.5C 360.696,976.639 363.863,973.306 367.5,970.5 Z"/></g>
<g><path style="opacity:0.999" fill="#5877e9" d="M 1114.5,982.5 C 1173.83,982.5 1233.17,982.5 1292.5,982.5C 1294.69,986.213 1296.35,990.213 1297.5,994.5C 1236.5,994.5 1175.5,994.5 1114.5,994.5C 1114.5,990.5 1114.5,986.5 1114.5,982.5 Z"/></g>
<g><path style="opacity:1" fill="#1eccd8" d="M 323.5,982.5 C 323.5,983.5 323.5,984.5 323.5,985.5C 330.167,985.5 336.833,985.5 343.5,985.5C 338.674,995.153 332.84,1004.15 326,1012.5C 320.384,1017.06 314.217,1020.73 307.5,1023.5C 311.675,1009.3 317.008,995.63 323.5,982.5 Z"/></g>
<g><path style="opacity:1" fill="#14cbd7" d="M 417.5,985.5 C 433.833,985.5 450.167,985.5 466.5,985.5C 466.5,1000.83 466.5,1016.17 466.5,1031.5C 462.833,1031.5 459.167,1031.5 455.5,1031.5C 451.009,1029.95 446.343,1029.11 441.5,1029C 451.931,1013.52 447.931,1006.52 429.5,1008C 431.317,1006.2 432.484,1004.03 433,1001.5C 433.381,989.912 427.881,985.912 416.5,989.5C 416.167,989.333 415.833,989.167 415.5,989C 416.305,987.887 416.972,986.721 417.5,985.5 Z"/></g>
<g><path style="opacity:0.999" fill="#557ae8" d="M 1114.5,994.5 C 1175.5,994.5 1236.5,994.5 1297.5,994.5C 1302.13,1003.71 1305.8,1013.38 1308.5,1023.5C 1243.83,1023.5 1179.17,1023.5 1114.5,1023.5C 1114.5,1013.83 1114.5,1004.17 1114.5,994.5 Z"/></g>
<g><path style="opacity:0.999" fill="#527ee8" d="M 1114.5,1023.5 C 1179.17,1023.5 1243.83,1023.5 1308.5,1023.5C 1311.77,1031.88 1314.43,1040.55 1316.5,1049.5C 1249.17,1049.5 1181.83,1049.5 1114.5,1049.5C 1114.5,1040.83 1114.5,1032.17 1114.5,1023.5 Z"/></g>
<g><path style="opacity:1" fill="#c2f3fe" d="M 298.5,1038.5 C 275.967,1052.79 251.634,1062.79 225.5,1068.5C 249.434,1057.71 273.768,1047.71 298.5,1038.5 Z"/></g>
<g><path style="opacity:0.998" fill="#4f82e6" d="M 1114.5,1049.5 C 1181.83,1049.5 1249.17,1049.5 1316.5,1049.5C 1318.63,1056.37 1320.3,1063.37 1321.5,1070.5C 1252.5,1070.5 1183.5,1070.5 1114.5,1070.5C 1114.5,1063.5 1114.5,1056.5 1114.5,1049.5 Z"/></g>
<g><path style="opacity:0.999" fill="#4c85e6" d="M 1114.5,1070.5 C 1183.5,1070.5 1252.5,1070.5 1321.5,1070.5C 1323.67,1079.71 1325.34,1089.04 1326.5,1098.5C 1255.9,1099.5 1185.24,1099.83 1114.5,1099.5C 1114.5,1089.83 1114.5,1080.17 1114.5,1070.5 Z"/></g>
<g><path style="opacity:1" fill="#1dc0d9" d="M 455.5,1031.5 C 459.167,1031.5 462.833,1031.5 466.5,1031.5C 466.5,1054.83 466.5,1078.17 466.5,1101.5C 441.5,1101.5 416.5,1101.5 391.5,1101.5C 410.386,1087.45 428.886,1072.79 447,1057.5C 450.385,1053.78 453.385,1049.78 456,1045.5C 459.455,1040.67 459.289,1036.01 455.5,1031.5 Z"/></g>
<g><path style="opacity:0.998" fill="#4988e5" d="M 1326.5,1098.5 C 1327.41,1103.45 1328.08,1108.45 1328.5,1113.5C 1257.38,1111.51 1186.05,1110.84 1114.5,1111.5C 1114.5,1107.5 1114.5,1103.5 1114.5,1099.5C 1185.24,1099.83 1255.9,1099.5 1326.5,1098.5 Z"/></g>
<g><path style="opacity:1" fill="#20bcda" d="M 391.5,1101.5 C 416.5,1101.5 441.5,1101.5 466.5,1101.5C 466.5,1105.5 466.5,1109.5 466.5,1113.5C 435.5,1113.5 404.5,1113.5 373.5,1113.5C 379.148,1109.01 385.148,1105.01 391.5,1101.5 Z"/></g>
<g><path style="opacity:0.999" fill="#478ce4" d="M 1114.5,1111.5 C 1186.05,1110.84 1257.38,1111.51 1328.5,1113.5C 1329.9,1125.45 1330.57,1137.45 1330.5,1149.5C 1258.5,1149.5 1186.5,1149.5 1114.5,1149.5C 1114.5,1136.83 1114.5,1124.17 1114.5,1111.5 Z"/></g>
<g><path style="opacity:1" fill="#23b8db" d="M 373.5,1113.5 C 404.5,1113.5 435.5,1113.5 466.5,1113.5C 466.5,1126.17 466.5,1138.83 466.5,1151.5C 418.167,1151.5 369.833,1151.5 321.5,1151.5C 335.314,1140.53 349.314,1129.7 363.5,1119C 366.727,1116.89 370.06,1115.05 373.5,1113.5 Z"/></g>
<g><path style="opacity:1" fill="#4292e3" d="M 1114.5,1149.5 C 1186.5,1149.5 1258.5,1149.5 1330.5,1149.5C 1330.5,1163.17 1330.5,1176.83 1330.5,1190.5C 1258.5,1190.5 1186.5,1190.5 1114.5,1190.5C 1114.5,1176.83 1114.5,1163.17 1114.5,1149.5 Z"/></g>
<g><path style="opacity:1" fill="#2db2dd" d="M 321.5,1151.5 C 369.833,1151.5 418.167,1151.5 466.5,1151.5C 466.5,1167.17 466.5,1182.83 466.5,1198.5C 405.833,1198.5 345.167,1198.5 284.5,1198.5C 284.5,1212.17 284.5,1225.83 284.5,1239.5C 284.5,1243.17 284.5,1246.83 284.5,1250.5C 284.5,1260.17 284.5,1269.83 284.5,1279.5C 284.5,1283.5 284.5,1287.5 284.5,1291.5C 284.5,1301.17 284.5,1310.83 284.5,1320.5C 284.5,1333.17 284.5,1345.83 284.5,1358.5C 284.5,1361.5 284.5,1364.5 284.5,1367.5C 284.5,1380.17 284.5,1392.83 284.5,1405.5C 283.501,1329 283.167,1252.34 283.5,1175.5C 295.895,1167.11 308.561,1159.11 321.5,1151.5 Z"/></g>
<g><path style="opacity:1" fill="#c2f2fe" d="M 283.5,1175.5 C 283.167,1252.34 283.501,1329 284.5,1405.5C 285.404,1406.21 285.737,1407.21 285.5,1408.5C 286.34,1421.22 287.673,1433.89 289.5,1446.5C 290.294,1450.64 291.294,1454.64 292.5,1458.5C 293.833,1468.85 296.166,1478.85 299.5,1488.5C 300.588,1495.53 302.588,1502.2 305.5,1508.5C 307.16,1515.31 309.327,1521.98 312,1528.5C 312.495,1530.47 312.662,1532.47 312.5,1534.5C 279.79,1516.57 244.79,1506.24 207.5,1503.5C 202.597,1473.81 195.097,1444.81 185,1416.5C 180.101,1406.6 174.768,1396.93 169,1387.5C 154.688,1372.25 137.522,1361.42 117.5,1355C 96.2557,1348.69 74.9224,1342.69 53.5,1337C 35.2028,1330.85 17.2028,1324.01 -0.5,1316.5C -0.5,1290.17 -0.5,1263.83 -0.5,1237.5C 26.0641,1245.57 53.2308,1250.23 81,1251.5C 113.771,1249.61 145.605,1243.11 176.5,1232C 213.997,1216.27 249.664,1197.43 283.5,1175.5 Z"/></g>
<g><path style="opacity:1" fill="#3f96e3" d="M 1114.5,1190.5 C 1186.5,1190.5 1258.5,1190.5 1330.5,1190.5C 1330.5,1193.5 1330.5,1196.5 1330.5,1199.5C 1258.5,1199.5 1186.5,1199.5 1114.5,1199.5C 1114.5,1196.5 1114.5,1193.5 1114.5,1190.5 Z"/></g>
<g><path style="opacity:1" fill="#3c99e2" d="M 1114.5,1199.5 C 1186.5,1199.5 1258.5,1199.5 1330.5,1199.5C 1330.5,1212.17 1330.5,1224.83 1330.5,1237.5C 1258.5,1237.5 1186.5,1237.5 1114.5,1237.5C 1114.5,1224.83 1114.5,1212.17 1114.5,1199.5 Z"/></g>
<g><path style="opacity:1" fill="#2dabde" d="M 466.5,1198.5 C 466.5,1200.17 466.5,1201.83 466.5,1203.5C 466.5,1215.5 466.5,1227.5 466.5,1239.5C 405.833,1239.5 345.167,1239.5 284.5,1239.5C 284.5,1225.83 284.5,1212.17 284.5,1198.5C 345.167,1198.5 405.833,1198.5 466.5,1198.5 Z"/></g>
<g><path style="opacity:1" fill="#30a7df" d="M 284.5,1239.5 C 345.167,1239.5 405.833,1239.5 466.5,1239.5C 466.5,1243.17 466.5,1246.83 466.5,1250.5C 405.833,1250.5 345.167,1250.5 284.5,1250.5C 284.5,1246.83 284.5,1243.17 284.5,1239.5 Z"/></g>
<g><path style="opacity:1" fill="#389ee1" d="M 1114.5,1237.5 C 1186.5,1237.5 1258.5,1237.5 1330.5,1237.5C 1330.5,1247.17 1330.5,1256.83 1330.5,1266.5C 1258.5,1266.5 1186.5,1266.5 1114.5,1266.5C 1114.5,1256.83 1114.5,1247.17 1114.5,1237.5 Z"/></g>
<g><path style="opacity:1" fill="#33a4df" d="M 284.5,1250.5 C 345.167,1250.5 405.833,1250.5 466.5,1250.5C 466.5,1260.17 466.5,1269.83 466.5,1279.5C 405.833,1279.5 345.167,1279.5 284.5,1279.5C 284.5,1269.83 284.5,1260.17 284.5,1250.5 Z"/></g>
<g><path style="opacity:1" fill="#35a1e0" d="M 1114.5,1266.5 C 1186.5,1266.5 1258.5,1266.5 1330.5,1266.5C 1330.5,1270.5 1330.5,1274.5 1330.5,1278.5C 1258.5,1278.5 1186.5,1278.5 1114.5,1278.5C 1114.5,1274.5 1114.5,1270.5 1114.5,1266.5 Z"/></g>
<g><path style="opacity:1" fill="#33a4df" d="M 1114.5,1278.5 C 1186.5,1278.5 1258.5,1278.5 1330.5,1278.5C 1330.5,1288.17 1330.5,1297.83 1330.5,1307.5C 1258.5,1307.5 1186.5,1307.5 1114.5,1307.5C 1114.5,1297.83 1114.5,1288.17 1114.5,1278.5 Z"/></g>
<g><path style="opacity:1" fill="#35a1e0" d="M 284.5,1279.5 C 345.167,1279.5 405.833,1279.5 466.5,1279.5C 466.5,1283.5 466.5,1287.5 466.5,1291.5C 405.833,1291.5 345.167,1291.5 284.5,1291.5C 284.5,1287.5 284.5,1283.5 284.5,1279.5 Z"/></g>
<g><path style="opacity:1" fill="#30a7df" d="M 1114.5,1307.5 C 1186.5,1307.5 1258.5,1307.5 1330.5,1307.5C 1330.5,1311.5 1330.5,1315.5 1330.5,1319.5C 1258.5,1319.5 1186.5,1319.5 1114.5,1319.5C 1114.5,1315.5 1114.5,1311.5 1114.5,1307.5 Z"/></g>
<g><path style="opacity:1" fill="#389ee1" d="M 284.5,1291.5 C 345.167,1291.5 405.833,1291.5 466.5,1291.5C 466.5,1301.17 466.5,1310.83 466.5,1320.5C 405.833,1320.5 345.167,1320.5 284.5,1320.5C 284.5,1310.83 284.5,1301.17 284.5,1291.5 Z"/></g>
<g><path style="opacity:1" fill="#d8f7fe" d="M -0.5,1316.5 C 17.2028,1324.01 35.2028,1330.85 53.5,1337C 74.9224,1342.69 96.2557,1348.69 117.5,1355C 137.522,1361.42 154.688,1372.25 169,1387.5C 174.768,1396.93 180.101,1406.6 185,1416.5C 195.097,1444.81 202.597,1473.81 207.5,1503.5C 175.05,1503.86 142.717,1506.03 110.5,1510C 105.673,1510.64 101.006,1511.8 96.5,1513.5C 66.0035,1498.33 33.6702,1490.67 -0.5,1490.5C -0.5,1432.5 -0.5,1374.5 -0.5,1316.5 Z"/></g>
<g><path style="opacity:1" fill="#2dabde" d="M 1114.5,1319.5 C 1186.5,1319.5 1258.5,1319.5 1330.5,1319.5C 1330.5,1333.17 1330.5,1346.83 1330.5,1360.5C 1258.5,1360.5 1186.5,1360.5 1114.5,1360.5C 1114.5,1346.83 1114.5,1333.17 1114.5,1319.5 Z"/></g>
<g><path style="opacity:1" fill="#3c99e2" d="M 284.5,1320.5 C 345.167,1320.5 405.833,1320.5 466.5,1320.5C 466.5,1333.17 466.5,1345.83 466.5,1358.5C 405.833,1358.5 345.167,1358.5 284.5,1358.5C 284.5,1345.83 284.5,1333.17 284.5,1320.5 Z"/></g>
<g><path style="opacity:1" fill="#3f96e3" d="M 284.5,1358.5 C 345.167,1358.5 405.833,1358.5 466.5,1358.5C 466.5,1361.5 466.5,1364.5 466.5,1367.5C 405.833,1367.5 345.167,1367.5 284.5,1367.5C 284.5,1364.5 284.5,1361.5 284.5,1358.5 Z"/></g>
<g><path style="opacity:1" fill="#28b2dc" d="M 1114.5,1360.5 C 1186.5,1360.5 1258.5,1360.5 1330.5,1360.5C 1330.5,1364.5 1330.5,1368.5 1330.5,1372.5C 1318.62,1380.54 1308.12,1390.21 1299,1401.5C 1289.5,1415.16 1280.5,1429.16 1272,1443.5C 1273,1427.78 1272.33,1412.11 1270,1396.5C 1268.32,1387.3 1264.15,1379.46 1257.5,1373C 1244.33,1367 1235.83,1371.17 1232,1385.5C 1231.5,1392.83 1231.33,1400.16 1231.5,1407.5C 1192.5,1407.5 1153.5,1407.5 1114.5,1407.5C 1114.5,1391.83 1114.5,1376.17 1114.5,1360.5 Z"/></g>
<g><path style="opacity:1" fill="#4292e3" d="M 284.5,1367.5 C 345.167,1367.5 405.833,1367.5 466.5,1367.5C 466.5,1381.17 466.5,1394.83 466.5,1408.5C 406.167,1408.5 345.833,1408.5 285.5,1408.5C 285.737,1407.21 285.404,1406.21 284.5,1405.5C 284.5,1392.83 284.5,1380.17 284.5,1367.5 Z"/></g>
<g><path style="opacity:1" fill="#000101" d="M 1326.5,1439.5 C 1322.4,1441.75 1318.4,1444.25 1314.5,1447C 1301.35,1453.66 1288.18,1460.16 1275,1466.5C 1264.75,1484.32 1256.75,1502.99 1251,1522.5C 1262.83,1506.67 1276.67,1492.83 1292.5,1481C 1301.08,1474.38 1310.74,1470.54 1321.5,1469.5C 1327.33,1469.99 1331.83,1472.66 1335,1477.5C 1337.39,1485.1 1336.72,1492.43 1333,1499.5C 1330.67,1502.5 1328.33,1505.5 1326,1508.5C 1318.6,1515.4 1311.1,1522.07 1303.5,1528.5C 1282.05,1541.06 1261.05,1554.4 1240.5,1568.5C 1238.91,1570.17 1238.25,1572.17 1238.5,1574.5C 1237.27,1582.28 1236.27,1590.11 1235.5,1598C 1237.11,1602.55 1237.94,1607.05 1238,1611.5C 1246.75,1610.12 1255.58,1609.12 1264.5,1608.5C 1278.37,1607.42 1292.2,1606.09 1306,1604.5C 1307.98,1604.99 1309.65,1605.99 1311,1607.5C 1313.47,1610.13 1315.3,1613.13 1316.5,1616.5C 1316.03,1627.25 1317.03,1637.91 1319.5,1648.5C 1318.46,1653.03 1315.63,1655.7 1311,1656.5C 1310.61,1659.84 1310.78,1663.17 1311.5,1666.5C 1307.74,1710.84 1305.91,1755.17 1306,1799.5C 1305.22,1801.29 1304.05,1802.79 1302.5,1804C 1279.56,1805.75 1256.56,1807.42 1233.5,1809C 1223.83,1809.67 1214.17,1809.67 1204.5,1809C 1201.45,1808.39 1198.95,1806.89 1197,1804.5C 1194.89,1800.61 1193.05,1796.61 1191.5,1792.5C 1190.35,1794.15 1189.02,1795.65 1187.5,1797C 1182.5,1799.17 1177.5,1801.33 1172.5,1803.5C 1171.78,1807.85 1171.11,1812.18 1170.5,1816.5C 1170.83,1816.83 1171.17,1817.17 1171.5,1817.5C 1179.13,1816.4 1186.79,1815.9 1194.5,1816C 1197.93,1817.53 1199.6,1820.2 1199.5,1824C 1197.07,1854.83 1192.57,1885.33 1186,1915.5C 1185.1,1916.7 1183.93,1917.53 1182.5,1918C 1158.15,1918.75 1133.82,1919.41 1109.5,1920C 1104.66,1918.18 1101.83,1914.68 1101,1909.5C 1095.84,1885.05 1089.68,1860.88 1082.5,1837C 1085.65,1831.88 1088.98,1826.88 1092.5,1822C 1100.19,1819.47 1108.02,1817.64 1116,1816.5C 1115.82,1812.43 1114.98,1808.43 1113.5,1804.5C 1107.77,1805.57 1102.44,1804.4 1097.5,1801C 1092.96,1795.32 1094.13,1791.16 1101,1788.5C 1104.34,1790.26 1107.84,1791.59 1111.5,1792.5C 1111.94,1785.52 1111.44,1778.52 1110,1771.5C 1104.51,1769.41 1099.01,1768.25 1093.5,1768C 1086.83,1763.67 1086.83,1759.33 1093.5,1755C 1095.83,1754.33 1098.17,1754.33 1100.5,1755C 1103.77,1756.15 1107.1,1756.98 1110.5,1757.5C 1110.76,1749.49 1112.1,1741.65 1114.5,1734C 1111.48,1729.96 1108.81,1725.63 1106.5,1721C 1107.53,1716.8 1110.2,1714.63 1114.5,1714.5C 1117.12,1716.78 1119.79,1719.12 1122.5,1721.5C 1125.74,1718.09 1129.41,1715.26 1133.5,1713C 1137.5,1712.67 1141.5,1712.33 1145.5,1712C 1147.33,1708.83 1149.17,1705.67 1151,1702.5C 1156.68,1697.96 1160.84,1699.13 1163.5,1706C 1161.05,1710.41 1158.71,1714.91 1156.5,1719.5C 1156.94,1720.74 1157.61,1721.74 1158.5,1722.5C 1162.96,1727.76 1166.13,1733.76 1168,1740.5C 1171.81,1756.28 1173.31,1772.28 1172.5,1788.5C 1176.67,1787.28 1180.83,1785.94 1185,1784.5C 1186.58,1785.04 1188.08,1785.71 1189.5,1786.5C 1182.61,1762.06 1176.61,1737.39 1171.5,1712.5C 1169.28,1698.95 1166.11,1685.61 1162,1672.5C 1158.05,1670.22 1154.39,1667.55 1151,1664.5C 1148.85,1657.22 1147.01,1649.89 1145.5,1642.5C 1143.41,1636.85 1145.07,1632.68 1150.5,1630C 1149.45,1626.74 1150.45,1624.08 1153.5,1622C 1165.34,1620.25 1177.01,1618.08 1188.5,1615.5C 1200.33,1614.96 1212,1613.79 1223.5,1612C 1221.43,1606.93 1217.77,1603.6 1212.5,1602C 1198.55,1597.75 1184.55,1593.75 1170.5,1590C 1164.51,1586.18 1160.18,1581.01 1157.5,1574.5C 1154.44,1562.11 1158.78,1553.28 1170.5,1548C 1183.73,1547.86 1195.23,1552.36 1205,1561.5C 1204.17,1556.49 1203,1551.49 1201.5,1546.5C 1186.45,1546.92 1171.45,1546.42 1156.5,1545C 1147.46,1541.79 1140.79,1535.96 1136.5,1527.5C 1132.92,1520.56 1132.76,1513.56 1136,1506.5C 1139.33,1502.43 1143.67,1500.43 1149,1500.5C 1153.85,1501.24 1158.68,1502.07 1163.5,1503C 1173.21,1506.53 1182.54,1510.53 1191.5,1515C 1188.71,1505.51 1186.37,1496.01 1184.5,1486.5C 1183.58,1476.51 1183.41,1466.51 1184,1456.5C 1184.6,1452.63 1185.77,1448.96 1187.5,1445.5C 1189.63,1443.87 1191.63,1442.04 1193.5,1440C 1202.48,1436.66 1210.15,1438.49 1216.5,1445.5C 1225.64,1457.74 1228.98,1471.4 1226.5,1486.5C 1225.63,1497.32 1222.3,1507.32 1216.5,1516.5C 1213.91,1520.68 1211.57,1525.02 1209.5,1529.5C 1213.78,1544.85 1218.95,1559.85 1225,1574.5C 1228.08,1554.92 1232.25,1535.58 1237.5,1516.5C 1241.43,1506.41 1245.76,1496.41 1250.5,1486.5C 1251.49,1484.53 1252.49,1482.53 1253.5,1480.5C 1250.6,1468.56 1246.93,1456.9 1242.5,1445.5C 1237.28,1433.31 1233.62,1420.64 1231.5,1407.5C 1231.33,1400.16 1231.5,1392.83 1232,1385.5C 1235.83,1371.17 1244.33,1367 1257.5,1373C 1264.15,1379.46 1268.32,1387.3 1270,1396.5C 1272.33,1412.11 1273,1427.78 1272,1443.5C 1280.5,1429.16 1289.5,1415.16 1299,1401.5C 1308.12,1390.21 1318.62,1380.54 1330.5,1372.5C 1343.8,1365.36 1353.97,1368.36 1361,1381.5C 1361.67,1386.83 1361.67,1392.17 1361,1397.5C 1358.94,1402.62 1356.61,1407.62 1354,1412.5C 1345.6,1422.4 1336.44,1431.4 1326.5,1439.5 Z M 1171.5,1712.5 C 1176.61,1737.39 1182.61,1762.06 1189.5,1786.5C 1188.08,1785.71 1186.58,1785.04 1185,1784.5C 1180.83,1785.94 1176.67,1787.28 1172.5,1788.5C 1173.31,1772.28 1171.81,1756.28 1168,1740.5C 1166.13,1733.76 1162.96,1727.76 1158.5,1722.5C 1162.83,1719.17 1167.17,1715.83 1171.5,1712.5 Z"/></g>
<g><path style="opacity:1" fill="#d8f7fe" d="M 1583.5,1380.5 C 1588.78,1379.93 1593.78,1380.76 1598.5,1383C 1600.89,1385.31 1601.89,1388.14 1601.5,1391.5C 1599.16,1403.02 1594.49,1413.52 1587.5,1423C 1594.14,1422.56 1600.8,1422.56 1607.5,1423C 1622.18,1425.68 1630.84,1434.34 1633.5,1449C 1631.62,1458.56 1626.28,1465.56 1617.5,1470C 1609.63,1472.38 1602.13,1471.55 1595,1467.5C 1595.43,1472.11 1596.1,1476.78 1597,1481.5C 1599.89,1493.38 1597.06,1503.54 1588.5,1512C 1579.6,1516.23 1571.77,1514.73 1565,1507.5C 1562.5,1504.5 1560.5,1501.16 1559,1497.5C 1532.61,1566.82 1521.28,1638.49 1525,1712.5C 1526.2,1730.48 1529.7,1747.98 1535.5,1765C 1533.72,1772.32 1529.89,1773.82 1524,1769.5C 1517.93,1755.47 1514.26,1740.8 1513,1725.5C 1508.03,1671.18 1512.03,1617.51 1525,1564.5C 1533.3,1530.62 1543.8,1497.45 1556.5,1465C 1556.17,1464.5 1555.83,1464 1555.5,1463.5C 1548.17,1467.22 1540.5,1470.06 1532.5,1472C 1527.17,1472.67 1521.83,1472.67 1516.5,1472C 1505.78,1467.09 1503.28,1459.59 1509,1449.5C 1517.67,1440.75 1528.17,1435.58 1540.5,1434C 1533.02,1428.52 1526.18,1422.35 1520,1415.5C 1513.75,1405.38 1515.91,1397.54 1526.5,1392C 1541.67,1389.45 1552.5,1395.28 1559,1409.5C 1563.11,1396.24 1571.28,1386.57 1583.5,1380.5 Z M 1586.5,1393.5 C 1584.1,1406.27 1577.93,1417.27 1568,1426.5C 1569.25,1418.43 1571.91,1410.76 1576,1403.5C 1578.76,1399.23 1582.26,1395.9 1586.5,1393.5 Z M 1532.5,1403.5 C 1543.8,1406.42 1549.64,1413.75 1550,1425.5C 1544.62,1420.46 1538.96,1415.79 1533,1411.5C 1531.83,1409.67 1530.67,1407.83 1529.5,1406C 1530.57,1405.15 1531.57,1404.31 1532.5,1403.5 Z M 1595.5,1435.5 C 1603.2,1434.87 1610.2,1436.7 1616.5,1441C 1622.23,1450.06 1619.9,1455.89 1609.5,1458.5C 1597.87,1455.38 1588.54,1448.88 1581.5,1439C 1586.21,1437.51 1590.87,1436.34 1595.5,1435.5 Z M 1547.5,1446.5 C 1550.65,1446.21 1553.65,1446.71 1556.5,1448C 1545.19,1455.16 1532.86,1458.99 1519.5,1459.5C 1519.3,1457.61 1519.96,1456.11 1521.5,1455C 1529.58,1450.03 1538.24,1447.2 1547.5,1446.5 Z M 1574.5,1452.5 C 1581.54,1465.87 1584.71,1480.2 1584,1495.5C 1584.09,1498.52 1582.76,1500.52 1580,1501.5C 1576.94,1500.81 1574.61,1499.14 1573,1496.5C 1568.39,1481.69 1568.89,1467.02 1574.5,1452.5 Z"/></g>
<g><path style="opacity:1" fill="#01d2c5" d="M 1246.5,1381.5 C 1250.56,1381.72 1253.39,1383.72 1255,1387.5C 1259.26,1398.58 1261.43,1410.08 1261.5,1422C 1260.94,1430.2 1260.11,1438.37 1259,1446.5C 1257.67,1447.83 1256.33,1447.83 1255,1446.5C 1249.62,1434.02 1245.62,1421.02 1243,1407.5C 1242.33,1401.17 1242.33,1394.83 1243,1388.5C 1243.13,1385.6 1244.3,1383.26 1246.5,1381.5 Z"/></g>
<g><path style="opacity:1" fill="#01ddcf" d="M 1339.5,1380.5 C 1347.11,1378.78 1350.78,1381.78 1350.5,1389.5C 1350.39,1393.33 1349.56,1396.99 1348,1400.5C 1331.96,1422.9 1311.13,1438.73 1285.5,1448C 1284.45,1446.61 1284.28,1445.11 1285,1443.5C 1295.89,1422.57 1310.06,1404.07 1327.5,1388C 1331.43,1385.21 1335.43,1382.71 1339.5,1380.5 Z"/></g>
<g><path style="opacity:1" fill="#23b8db" d="M 1114.5,1407.5 C 1153.5,1407.5 1192.5,1407.5 1231.5,1407.5C 1233.62,1420.64 1237.28,1433.31 1242.5,1445.5C 1233.83,1445.5 1225.17,1445.5 1216.5,1445.5C 1210.15,1438.49 1202.48,1436.66 1193.5,1440C 1191.63,1442.04 1189.63,1443.87 1187.5,1445.5C 1163.17,1445.5 1138.83,1445.5 1114.5,1445.5C 1114.5,1432.83 1114.5,1420.17 1114.5,1407.5 Z"/></g>
<g><path style="opacity:1" fill="#478ce4" d="M 285.5,1408.5 C 345.833,1408.5 406.167,1408.5 466.5,1408.5C 466.5,1421.17 466.5,1433.83 466.5,1446.5C 407.5,1446.5 348.5,1446.5 289.5,1446.5C 287.673,1433.89 286.34,1421.22 285.5,1408.5 Z"/></g>
<g><path style="opacity:1" fill="#4988e6" d="M 289.5,1446.5 C 348.5,1446.5 407.5,1446.5 466.5,1446.5C 466.5,1450.5 466.5,1454.5 466.5,1458.5C 408.5,1458.5 350.5,1458.5 292.5,1458.5C 291.294,1454.64 290.294,1450.64 289.5,1446.5 Z"/></g>
<g><path style="opacity:1" fill="#01d5c8" d="M 1199.5,1449.5 C 1204.03,1449.5 1207.53,1451.5 1210,1455.5C 1219.08,1474.85 1217.75,1493.52 1206,1511.5C 1204.67,1512.83 1203.33,1512.83 1202,1511.5C 1196.84,1494.52 1194.5,1477.19 1195,1459.5C 1195.16,1455.51 1196.66,1452.18 1199.5,1449.5 Z"/></g>
<g><path style="opacity:1" fill="#1ebeda" d="M 1114.5,1445.5 C 1138.83,1445.5 1163.17,1445.5 1187.5,1445.5C 1185.77,1448.96 1184.6,1452.63 1184,1456.5C 1183.41,1466.51 1183.58,1476.51 1184.5,1486.5C 1161.17,1486.5 1137.83,1486.5 1114.5,1486.5C 1114.5,1472.83 1114.5,1459.17 1114.5,1445.5 Z"/></g>
<g><path style="opacity:1" fill="#1ebeda" d="M 1216.5,1445.5 C 1225.17,1445.5 1233.83,1445.5 1242.5,1445.5C 1246.93,1456.9 1250.6,1468.56 1253.5,1480.5C 1252.49,1482.53 1251.49,1484.53 1250.5,1486.5C 1242.5,1486.5 1234.5,1486.5 1226.5,1486.5C 1228.98,1471.4 1225.64,1457.74 1216.5,1445.5 Z"/></g>
<g><path style="opacity:0.999" fill="#1dbfd9" d="M 1326.5,1439.5 C 1324.83,1449.5 1323.17,1459.5 1321.5,1469.5C 1310.74,1470.54 1301.08,1474.38 1292.5,1481C 1276.67,1492.83 1262.83,1506.67 1251,1522.5C 1256.75,1502.99 1264.75,1484.32 1275,1466.5C 1288.18,1460.16 1301.35,1453.66 1314.5,1447C 1318.4,1444.25 1322.4,1441.75 1326.5,1439.5 Z"/></g>
<g><path style="opacity:1" fill="#4c85e6" d="M 292.5,1458.5 C 350.5,1458.5 408.5,1458.5 466.5,1458.5C 466.5,1468.17 466.5,1477.83 466.5,1487.5C 410.664,1487.17 354.998,1487.5 299.5,1488.5C 296.166,1478.85 293.833,1468.85 292.5,1458.5 Z"/></g>
<g><path style="opacity:1" fill="#01ded0" d="M 1318.5,1480.5 C 1322.68,1480.35 1325.02,1482.35 1325.5,1486.5C 1323.69,1492.28 1320.69,1497.45 1316.5,1502C 1296.75,1519.15 1275.25,1533.98 1252,1546.5C 1249.01,1545.48 1248.67,1543.82 1251,1541.5C 1265.11,1521.73 1281.61,1504.23 1300.5,1489C 1306.27,1485.28 1312.27,1482.44 1318.5,1480.5 Z"/></g>
<g><path style="opacity:1" fill="#1ac3d8" d="M 1114.5,1486.5 C 1137.83,1486.5 1161.17,1486.5 1184.5,1486.5C 1186.37,1496.01 1188.71,1505.51 1191.5,1515C 1182.54,1510.53 1173.21,1506.53 1163.5,1503C 1158.68,1502.07 1153.85,1501.24 1149,1500.5C 1143.67,1500.43 1139.33,1502.43 1136,1506.5C 1132.76,1513.56 1132.92,1520.56 1136.5,1527.5C 1129.17,1527.5 1121.83,1527.5 1114.5,1527.5C 1114.5,1513.83 1114.5,1500.17 1114.5,1486.5 Z"/></g>
<g><path style="opacity:1" fill="#1ac3d9" d="M 1226.5,1486.5 C 1234.5,1486.5 1242.5,1486.5 1250.5,1486.5C 1245.76,1496.41 1241.43,1506.41 1237.5,1516.5C 1230.5,1516.5 1223.5,1516.5 1216.5,1516.5C 1222.3,1507.32 1225.63,1497.32 1226.5,1486.5 Z"/></g>
<g><path style="opacity:1" fill="#4f82e7" d="M 466.5,1487.5 C 466.5,1494.17 466.5,1500.83 466.5,1507.5C 412.664,1507.17 358.997,1507.5 305.5,1508.5C 302.588,1502.2 300.588,1495.53 299.5,1488.5C 354.998,1487.5 410.664,1487.17 466.5,1487.5 Z"/></g>
<g><path style="opacity:1" fill="#010103" d="M -0.5,1490.5 C 33.6702,1490.67 66.0035,1498.33 96.5,1513.5C 101.006,1511.8 105.673,1510.64 110.5,1510C 142.717,1506.03 175.05,1503.86 207.5,1503.5C 244.79,1506.24 279.79,1516.57 312.5,1534.5C 325.923,1542.24 337.923,1551.9 348.5,1563.5C 355.593,1572.69 361.926,1582.36 367.5,1592.5C 373.577,1605.64 376.91,1619.47 377.5,1634C 377.524,1648.05 374.191,1661.22 367.5,1673.5C 354.401,1695.79 338.067,1715.62 318.5,1733C 270.714,1774.25 217.381,1806.92 158.5,1831C 141.097,1836.04 124.43,1842.71 108.5,1851C 75.1778,1892.49 38.8444,1931.33 -0.5,1967.5C -0.5,1963.17 -0.5,1958.83 -0.5,1954.5C 52.8182,1905.71 99.3182,1851.37 139,1791.5C 154.007,1768.49 166.674,1744.16 177,1718.5C 189.015,1681.71 187.681,1645.37 173,1609.5C 154.195,1564.49 122.029,1532.99 76.5,1515C 51.622,1506.14 25.9554,1501.3 -0.5,1500.5C -0.5,1497.17 -0.5,1493.83 -0.5,1490.5 Z"/></g>
<g><path style="opacity:1" fill="#000001" d="M 1390.5,1490.5 C 1403.54,1489.04 1410.21,1494.87 1410.5,1508C 1410.53,1514.33 1408.87,1520.16 1405.5,1525.5C 1414.54,1524.77 1422.04,1527.77 1428,1534.5C 1433.72,1551.97 1427.22,1560.64 1408.5,1560.5C 1402.45,1559.71 1396.45,1558.71 1390.5,1557.5C 1388.83,1563.71 1388.33,1570.04 1389,1576.5C 1392.44,1601.93 1396.44,1627.27 1401,1652.5C 1413.25,1653.35 1425.25,1651.68 1437,1647.5C 1438.98,1647.99 1440.65,1648.99 1442,1650.5C 1443.38,1667.58 1444.21,1684.74 1444.5,1702C 1443.82,1718.17 1442.99,1734.34 1442,1750.5C 1441.6,1758.95 1440.6,1767.28 1439,1775.5C 1438.1,1776.7 1436.93,1777.53 1435.5,1778C 1426.83,1778.57 1418.16,1779.24 1409.5,1780C 1398.07,1780.96 1386.74,1780.62 1375.5,1779C 1371.87,1774.79 1369.37,1769.96 1368,1764.5C 1360.89,1733.04 1352.39,1702.04 1342.5,1671.5C 1342.55,1667.9 1344.22,1665.4 1347.5,1664C 1350.83,1663 1354.17,1662 1357.5,1661C 1367.62,1660.26 1377.62,1658.76 1387.5,1656.5C 1383.89,1631.48 1380.05,1606.48 1376,1581.5C 1373.08,1583.71 1369.91,1585.55 1366.5,1587C 1359.33,1588.67 1354.17,1586.17 1351,1579.5C 1350.39,1574.14 1350.56,1568.81 1351.5,1563.5C 1341.79,1563.89 1333.62,1560.56 1327,1553.5C 1321.69,1540.45 1326.03,1532.78 1340,1530.5C 1344.56,1531.48 1349.06,1532.31 1353.5,1533C 1351.74,1530.07 1350.58,1526.9 1350,1523.5C 1349.33,1517.17 1349.33,1510.83 1350,1504.5C 1354.46,1495.18 1361.3,1493.01 1370.5,1498C 1373,1500.5 1375.5,1503 1378,1505.5C 1380.21,1498.8 1384.38,1493.8 1390.5,1490.5 Z"/></g>
<g><path style="opacity:1" fill="#5a75ea" d="M -0.5,1500.5 C 25.9554,1501.3 51.622,1506.14 76.5,1515C 122.029,1532.99 154.195,1564.49 173,1609.5C 187.681,1645.37 189.015,1681.71 177,1718.5C 166.674,1744.16 154.007,1768.49 139,1791.5C 99.3182,1851.37 52.8182,1905.71 -0.5,1954.5C -0.5,1803.17 -0.5,1651.83 -0.5,1500.5 Z"/></g>
<g><path style="opacity:1" fill="#536cd8" d="M 1393.5,1501.5 C 1398.65,1502.8 1400.49,1506.13 1399,1511.5C 1398.49,1513.88 1397.82,1516.21 1397,1518.5C 1394.37,1523.47 1391.03,1527.8 1387,1531.5C 1385.72,1531.39 1384.89,1530.72 1384.5,1529.5C 1385.58,1521.34 1387.42,1513.34 1390,1505.5C 1391.38,1504.29 1392.54,1502.96 1393.5,1501.5 Z"/></g>
<g><path style="opacity:1" fill="#546dda" d="M 1361.5,1507.5 C 1362.55,1507.35 1363.55,1507.52 1364.5,1508C 1371.53,1514.58 1375.2,1522.75 1375.5,1532.5C 1374.33,1537.34 1371.83,1538.34 1368,1535.5C 1361.42,1527.17 1359.25,1517.83 1361.5,1507.5 Z"/></g>
<g><path style="opacity:1" fill="#5a75ea" d="M 261.5,1763.5 C 262.603,1709.82 250.436,1659.49 225,1612.5C 199.552,1574.55 167.719,1543.22 129.5,1518.5C 156.709,1514.76 184.042,1513.26 211.5,1514C 250.306,1517.05 285.973,1529.05 318.5,1550C 347.436,1570.53 363.77,1598.53 367.5,1634C 367.136,1649.29 362.969,1663.46 355,1676.5C 345.635,1690.2 335.135,1703.04 323.5,1715C 310.833,1725.67 298.167,1736.33 285.5,1747C 277.876,1753.14 269.876,1758.64 261.5,1763.5 Z"/></g>
<g><path style="opacity:1" fill="#527ee8" d="M 466.5,1507.5 C 466.5,1516.17 466.5,1524.83 466.5,1533.5C 415.095,1533.17 363.762,1533.5 312.5,1534.5C 312.662,1532.47 312.495,1530.47 312,1528.5C 309.327,1521.98 307.16,1515.31 305.5,1508.5C 358.997,1507.5 412.664,1507.17 466.5,1507.5 Z"/></g>
<g><path style="opacity:1" fill="#01d6c8" d="M 1146.5,1512.5 C 1163.84,1513.83 1179.17,1520.17 1192.5,1531.5C 1193.58,1532.36 1193.75,1533.36 1193,1534.5C 1183.58,1535.65 1174.08,1535.82 1164.5,1535C 1153.64,1533.14 1146.97,1526.81 1144.5,1516C 1144.98,1514.7 1145.64,1513.53 1146.5,1512.5 Z"/></g>
<g><path style="opacity:1" fill="#4d6bea" d="M 129.5,1518.5 C 167.719,1543.22 199.552,1574.55 225,1612.5C 250.436,1659.49 262.603,1709.82 261.5,1763.5C 218.786,1794.36 172.12,1817.52 121.5,1833C 144.387,1803.42 163.887,1771.59 180,1737.5C 203.183,1683.02 199.516,1630.36 169,1579.5C 154.222,1555.39 134.722,1535.89 110.5,1521C 116.687,1519.27 123.02,1518.43 129.5,1518.5 Z"/></g>
<g><path style="opacity:1" fill="#14cbd7" d="M 1114.5,1527.5 C 1121.83,1527.5 1129.17,1527.5 1136.5,1527.5C 1140.79,1535.96 1147.46,1541.79 1156.5,1545C 1171.45,1546.42 1186.45,1546.92 1201.5,1546.5C 1203,1551.49 1204.17,1556.49 1205,1561.5C 1195.23,1552.36 1183.73,1547.86 1170.5,1548C 1158.78,1553.28 1154.44,1562.11 1157.5,1574.5C 1143.17,1574.5 1128.83,1574.5 1114.5,1574.5C 1114.5,1558.83 1114.5,1543.17 1114.5,1527.5 Z"/></g>
<g><path style="opacity:1" fill="#15c9d7" d="M 1216.5,1516.5 C 1223.5,1516.5 1230.5,1516.5 1237.5,1516.5C 1232.25,1535.58 1228.08,1554.92 1225,1574.5C 1218.95,1559.85 1213.78,1544.85 1209.5,1529.5C 1211.57,1525.02 1213.91,1520.68 1216.5,1516.5 Z"/></g>
<g><path style="opacity:0.986" fill="#13cbd7" d="M 1303.5,1528.5 C 1297.8,1544.25 1291.14,1559.58 1283.5,1574.5C 1268.5,1574.5 1253.5,1574.5 1238.5,1574.5C 1238.25,1572.17 1238.91,1570.17 1240.5,1568.5C 1261.05,1554.4 1282.05,1541.06 1303.5,1528.5 Z"/></g>
<g><path style="opacity:1" fill="#557ae8" d="M 466.5,1533.5 C 466.5,1542.83 466.5,1552.17 466.5,1561.5C 460.124,1558.51 454.124,1559.17 448.5,1563.5C 415.167,1563.5 381.833,1563.5 348.5,1563.5C 337.923,1551.9 325.923,1542.24 312.5,1534.5C 363.762,1533.5 415.095,1533.17 466.5,1533.5 Z"/></g>
<g><path style="opacity:1" fill="#516ad4" d="M 1406.5,1537.5 C 1411.45,1536.63 1415.61,1537.96 1419,1541.5C 1419.92,1544.31 1419.09,1546.47 1416.5,1548C 1409.05,1549.61 1401.72,1548.94 1394.5,1546C 1393.17,1544.67 1393.17,1543.33 1394.5,1542C 1398.57,1540.37 1402.57,1538.87 1406.5,1537.5 Z"/></g>
<g><path style="opacity:1" fill="#5068d0" d="M 1337.5,1542.5 C 1344.08,1542.86 1350.41,1544.36 1356.5,1547C 1357.71,1549.23 1357.04,1550.9 1354.5,1552C 1347.43,1553.06 1341.26,1551.22 1336,1546.5C 1335.7,1544.93 1336.2,1543.6 1337.5,1542.5 Z"/></g>
<g><path style="opacity:1" fill="#546edc" d="M 1372.5,1554.5 C 1374.02,1554.51 1375.18,1555.18 1376,1556.5C 1376.67,1559.5 1376.67,1562.5 1376,1565.5C 1373.5,1568 1371,1570.5 1368.5,1573C 1366.79,1574.75 1364.79,1575.42 1362.5,1575C 1361.32,1572.16 1361.49,1569.33 1363,1566.5C 1365.62,1562.05 1368.79,1558.05 1372.5,1554.5 Z"/></g>
<g><path style="opacity:1" fill="#d8f6fe" d="M 466.5,1561.5 C 468.241,1563.98 469.741,1566.64 471,1569.5C 471.741,1576.96 471.407,1584.3 470,1591.5C 480.259,1584.53 490.092,1584.86 499.5,1592.5C 506.458,1604.78 503.458,1613.95 490.5,1620C 484.926,1621.71 479.26,1623.05 473.5,1624C 481.102,1626.94 487.602,1631.44 493,1637.5C 501.207,1650.52 498.374,1660.02 484.5,1666C 476.315,1667.05 468.815,1665.22 462,1660.5C 465.662,1680.5 469.662,1700.5 474,1720.5C 476.492,1733.46 478.658,1746.46 480.5,1759.5C 484.451,1787.36 486.284,1815.36 486,1843.5C 480.786,1851.7 476.286,1851.37 472.5,1842.5C 473.123,1811.6 470.79,1780.93 465.5,1750.5C 459.781,1716.62 452.948,1682.95 445,1649.5C 444,1648.5 443,1647.5 442,1646.5C 439.943,1659.52 435.443,1671.52 428.5,1682.5C 420.998,1690.45 413.498,1690.45 406,1682.5C 402.027,1668.31 403.527,1654.65 410.5,1641.5C 397.391,1638.9 387.891,1631.56 382,1619.5C 378.826,1610.94 380.326,1603.44 386.5,1597C 393.273,1593.79 399.94,1594.12 406.5,1598C 414.486,1601.66 422.153,1605.83 429.5,1610.5C 431.166,1604.55 432.832,1598.55 434.5,1592.5C 436.776,1581.62 441.442,1571.95 448.5,1563.5C 454.124,1559.17 460.124,1558.51 466.5,1561.5 Z"/></g>
<g><path style="opacity:1" fill="#01d9cc" d="M 1173.5,1558.5 C 1181.35,1560.25 1188.68,1563.42 1195.5,1568C 1201.67,1572.83 1207.17,1578.33 1212,1584.5C 1212.88,1586.64 1212.38,1588.31 1210.5,1589.5C 1198.87,1586.18 1187.2,1583.01 1175.5,1580C 1170.38,1575.94 1167.88,1570.77 1168,1564.5C 1170.04,1562.63 1171.87,1560.63 1173.5,1558.5 Z"/></g>
<g><path style="opacity:1" fill="#5975e9" d="M 348.5,1563.5 C 381.833,1563.5 415.167,1563.5 448.5,1563.5C 441.442,1571.95 436.776,1581.62 434.5,1592.5C 412.167,1592.5 389.833,1592.5 367.5,1592.5C 361.926,1582.36 355.593,1572.69 348.5,1563.5 Z"/></g>
<g><path style="opacity:1" fill="#5975ea" d="M 453.5,1592.5 C 451.833,1592.5 450.167,1592.5 448.5,1592.5C 449.777,1585.33 452.777,1578.99 457.5,1573.5C 459.054,1580.49 457.72,1586.82 453.5,1592.5 Z"/></g>
<g><path style="opacity:1" fill="#0ed1d5" d="M 1114.5,1574.5 C 1128.83,1574.5 1143.17,1574.5 1157.5,1574.5C 1160.18,1581.01 1164.51,1586.18 1170.5,1590C 1184.55,1593.75 1198.55,1597.75 1212.5,1602C 1217.77,1603.6 1221.43,1606.93 1223.5,1612C 1212,1613.79 1200.33,1614.96 1188.5,1615.5C 1163.83,1615.5 1139.17,1615.5 1114.5,1615.5C 1114.5,1601.83 1114.5,1588.17 1114.5,1574.5 Z"/></g>
<g><path style="opacity:0.989" fill="#0fd0d6" d="M 1238.5,1574.5 C 1253.5,1574.5 1268.5,1574.5 1283.5,1574.5C 1277.15,1585.86 1270.82,1597.19 1264.5,1608.5C 1255.58,1609.12 1246.75,1610.12 1238,1611.5C 1237.94,1607.05 1237.11,1602.55 1235.5,1598C 1236.27,1590.11 1237.27,1582.28 1238.5,1574.5 Z"/></g>
<g><path style="opacity:0.992" fill="#08d9d4" d="M 367.5,1592.5 C 389.833,1592.5 412.167,1592.5 434.5,1592.5C 432.832,1598.55 431.166,1604.55 429.5,1610.5C 422.153,1605.83 414.486,1601.66 406.5,1598C 399.94,1594.12 393.273,1593.79 386.5,1597C 380.326,1603.44 378.826,1610.94 382,1619.5C 387.891,1631.56 397.391,1638.9 410.5,1641.5C 403.527,1654.65 402.027,1668.31 406,1682.5C 413.498,1690.45 420.998,1690.45 428.5,1682.5C 428.333,1696.84 428.5,1711.17 429,1725.5C 429.717,1726.04 430.217,1726.71 430.5,1727.5C 420.113,1720.63 410.113,1713.13 400.5,1705C 389.328,1694.66 378.328,1684.16 367.5,1673.5C 374.191,1661.22 377.524,1648.05 377.5,1634C 376.91,1619.47 373.577,1605.64 367.5,1592.5 Z"/></g>
<g><path style="opacity:1" fill="#0fd1d6" d="M 448.5,1592.5 C 450.167,1592.5 451.833,1592.5 453.5,1592.5C 451.443,1597.61 448.609,1602.28 445,1606.5C 445.233,1601.57 446.399,1596.9 448.5,1592.5 Z"/></g>
<g><path style="opacity:0.998" fill="#15cad7" d="M 499.5,1592.5 C 503.167,1592.5 506.833,1592.5 510.5,1592.5C 510.5,1620.83 510.5,1649.17 510.5,1677.5C 503.969,1689.79 506.303,1700.29 517.5,1709C 519.996,1710.08 522.33,1711.41 524.5,1713C 514.381,1719.41 509.714,1728.57 510.5,1740.5C 510.828,1751.35 510.494,1762.01 509.5,1772.5C 499.485,1768.99 489.818,1764.66 480.5,1759.5C 478.658,1746.46 476.492,1733.46 474,1720.5C 469.662,1700.5 465.662,1680.5 462,1660.5C 468.815,1665.22 476.315,1667.05 484.5,1666C 498.374,1660.02 501.207,1650.52 493,1637.5C 487.602,1631.44 481.102,1626.94 473.5,1624C 479.26,1623.05 484.926,1621.71 490.5,1620C 503.458,1613.95 506.458,1604.78 499.5,1592.5 Z"/></g>
<g><path style="opacity:1" fill="#19c4d8" d="M 510.5,1592.5 C 523.5,1592.5 536.5,1592.5 549.5,1592.5C 549.5,1621.83 549.5,1651.17 549.5,1680.5C 540.062,1674.3 529.729,1671.46 518.5,1672C 515.631,1673.6 512.964,1675.43 510.5,1677.5C 510.5,1649.17 510.5,1620.83 510.5,1592.5 Z"/></g>
<g><path style="opacity:1" fill="#1ebeda" d="M 549.5,1592.5 C 562.167,1592.5 574.833,1592.5 587.5,1592.5C 587.5,1617.5 587.5,1642.5 587.5,1667.5C 586.185,1662.23 584.019,1656.57 581,1650.5C 569.797,1639.7 561.464,1641.7 556,1656.5C 553.635,1665.29 553.135,1674.13 554.5,1683C 552.541,1682.9 550.875,1682.07 549.5,1680.5C 549.5,1651.17 549.5,1621.83 549.5,1592.5 Z"/></g>
<g><path style="opacity:1" fill="#23b8db" d="M 587.5,1592.5 C 599.5,1592.5 611.5,1592.5 623.5,1592.5C 623.5,1612.83 623.5,1633.17 623.5,1653.5C 613.949,1650.97 605.282,1652.8 597.5,1659C 594,1661.67 590.667,1664.5 587.5,1667.5C 587.5,1642.5 587.5,1617.5 587.5,1592.5 Z"/></g>
<g><path style="opacity:0.998" fill="#28b1dc" d="M 623.5,1592.5 C 638.167,1592.5 652.833,1592.5 667.5,1592.5C 667.5,1664.5 667.5,1736.5 667.5,1808.5C 652.254,1808.31 637.254,1806.98 622.5,1804.5C 623.497,1786.34 623.83,1768.01 623.5,1749.5C 633.264,1744.66 637.93,1736.66 637.5,1725.5C 637.826,1711.31 631.826,1700.81 619.5,1694C 627.785,1687.77 632.452,1679.44 633.5,1669C 633.034,1661.88 629.701,1656.72 623.5,1653.5C 623.5,1633.17 623.5,1612.83 623.5,1592.5 Z"/></g>
<g><path style="opacity:1" fill="#2dabde" d="M 667.5,1592.5 C 680.167,1592.5 692.833,1592.5 705.5,1592.5C 705.5,1664.5 705.5,1736.5 705.5,1808.5C 692.833,1808.5 680.167,1808.5 667.5,1808.5C 667.5,1736.5 667.5,1664.5 667.5,1592.5 Z"/></g>
<g><path style="opacity:1" fill="#30a7df" d="M 705.5,1592.5 C 709.167,1592.5 712.833,1592.5 716.5,1592.5C 716.5,1664.5 716.5,1736.5 716.5,1808.5C 712.833,1808.5 709.167,1808.5 705.5,1808.5C 705.5,1736.5 705.5,1664.5 705.5,1592.5 Z"/></g>
<g><path style="opacity:1" fill="#33a4df" d="M 716.5,1592.5 C 725.833,1592.5 735.167,1592.5 744.5,1592.5C 744.5,1664.5 744.5,1736.5 744.5,1808.5C 735.167,1808.5 725.833,1808.5 716.5,1808.5C 716.5,1736.5 716.5,1664.5 716.5,1592.5 Z"/></g>
<g><path style="opacity:1" fill="#35a1e0" d="M 744.5,1592.5 C 747.833,1592.5 751.167,1592.5 754.5,1592.5C 754.5,1664.5 754.5,1736.5 754.5,1808.5C 751.167,1808.5 747.833,1808.5 744.5,1808.5C 744.5,1736.5 744.5,1664.5 744.5,1592.5 Z"/></g>
<g><path style="opacity:1" fill="#389ee1" d="M 754.5,1592.5 C 763.833,1592.5 773.167,1592.5 782.5,1592.5C 782.5,1664.5 782.5,1736.5 782.5,1808.5C 773.167,1808.5 763.833,1808.5 754.5,1808.5C 754.5,1736.5 754.5,1664.5 754.5,1592.5 Z"/></g>
<g><path style="opacity:1" fill="#3c99e2" d="M 782.5,1592.5 C 794.5,1592.5 806.5,1592.5 818.5,1592.5C 818.5,1664.5 818.5,1736.5 818.5,1808.5C 806.5,1808.5 794.5,1808.5 782.5,1808.5C 782.5,1736.5 782.5,1664.5 782.5,1592.5 Z"/></g>
<g><path style="opacity:1" fill="#3f96e3" d="M 818.5,1592.5 C 821.167,1592.5 823.833,1592.5 826.5,1592.5C 826.5,1664.5 826.5,1736.5 826.5,1808.5C 823.833,1808.5 821.167,1808.5 818.5,1808.5C 818.5,1736.5 818.5,1664.5 818.5,1592.5 Z"/></g>
<g><path style="opacity:1" fill="#4292e3" d="M 826.5,1592.5 C 839.167,1592.5 851.833,1592.5 864.5,1592.5C 864.5,1664.5 864.5,1736.5 864.5,1808.5C 851.833,1808.5 839.167,1808.5 826.5,1808.5C 826.5,1736.5 826.5,1664.5 826.5,1592.5 Z"/></g>
<g><path style="opacity:1" fill="#478ce4" d="M 864.5,1592.5 C 876.171,1592.33 887.838,1592.5 899.5,1593C 900.056,1593.38 900.389,1593.88 900.5,1594.5C 900.5,1665.83 900.5,1737.17 900.5,1808.5C 888.5,1808.5 876.5,1808.5 864.5,1808.5C 864.5,1736.5 864.5,1664.5 864.5,1592.5 Z"/></g>
<g><path style="opacity:0.998" fill="#4988e6" d="M 900.5,1594.5 C 904.5,1597.83 908.167,1601.5 911.5,1605.5C 911.5,1673.17 911.5,1740.83 911.5,1808.5C 907.833,1808.5 904.167,1808.5 900.5,1808.5C 900.5,1737.17 900.5,1665.83 900.5,1594.5 Z"/></g>
<g><path style="opacity:1" fill="#13ccd7" d="M 482.5,1599.5 C 489.439,1598.58 491.439,1601.08 488.5,1607C 480.315,1609.51 471.982,1610.84 463.5,1611C 469.499,1606.48 475.832,1602.64 482.5,1599.5 Z"/></g>
<g><path style="opacity:0.997" fill="#4c85e6" d="M 911.5,1605.5 C 920.833,1614.17 929.833,1623.17 938.5,1632.5C 938.5,1690.5 938.5,1748.5 938.5,1806.5C 937.209,1806.26 936.209,1806.6 935.5,1807.5C 927.521,1808.22 919.521,1808.56 911.5,1808.5C 911.5,1740.83 911.5,1673.17 911.5,1605.5 Z"/></g>
<g><path style="opacity:1" fill="#09d7d4" d="M 393.5,1608.5 C 404.522,1611.01 414.522,1615.68 423.5,1622.5C 411.919,1630.53 402.419,1628.53 395,1616.5C 393.921,1613.94 393.421,1611.27 393.5,1608.5 Z"/></g>
<g><path style="opacity:1" fill="#0bd6d5" d="M 1114.5,1615.5 C 1139.17,1615.5 1163.83,1615.5 1188.5,1615.5C 1177.01,1618.08 1165.34,1620.25 1153.5,1622C 1150.45,1624.08 1149.45,1626.74 1150.5,1630C 1145.07,1632.68 1143.41,1636.85 1145.5,1642.5C 1135.17,1642.5 1124.83,1642.5 1114.5,1642.5C 1114.5,1633.5 1114.5,1624.5 1114.5,1615.5 Z"/></g>
<g><path style="opacity:1" fill="#d2eff7" d="M 1294.5,1616.5 C 1298.01,1615.99 1301.17,1616.66 1304,1618.5C 1305.25,1626.82 1305.92,1635.15 1306,1643.5C 1304.08,1644.54 1302.25,1645.71 1300.5,1647C 1271.35,1649.39 1242.35,1652.72 1213.5,1657C 1201.97,1657.45 1190.47,1658.28 1179,1659.5C 1177.44,1659.4 1175.94,1659.06 1174.5,1658.5C 1168.95,1661.83 1164.11,1661.16 1160,1656.5C 1157.95,1648.93 1156.95,1641.27 1157,1633.5C 1168.04,1630.96 1179.21,1628.79 1190.5,1627C 1225.32,1623.52 1259.99,1620.02 1294.5,1616.5 Z"/></g>
<g><path style="opacity:0.995" fill="#4f82e6" d="M 938.5,1632.5 C 945.167,1638.5 951.5,1644.83 957.5,1651.5C 957.5,1702.83 957.5,1754.17 957.5,1805.5C 950.153,1806.03 942.819,1806.7 935.5,1807.5C 936.209,1806.6 937.209,1806.26 938.5,1806.5C 938.5,1748.5 938.5,1690.5 938.5,1632.5 Z"/></g>
<g><path style="opacity:1" fill="#0bd5d5" d="M 427.5,1638.5 C 428.677,1644.46 428.177,1650.46 426,1656.5C 424.667,1660.5 423.333,1664.5 422,1668.5C 421.218,1671.08 419.718,1673.08 417.5,1674.5C 416.159,1661.2 419.492,1649.2 427.5,1638.5 Z"/></g>
<g><path style="opacity:1" fill="#12cdd6" d="M 443.5,1631.5 C 452.417,1632.32 461.417,1634.15 470.5,1637C 477.895,1639.06 482.562,1643.73 484.5,1651C 481.189,1653.97 477.523,1654.31 473.5,1652C 462.604,1646.39 452.604,1639.56 443.5,1631.5 Z"/></g>
<g><path style="opacity:1" fill="#d8f6fe" d="M 587.5,1667.5 C 590.667,1664.5 594,1661.67 597.5,1659C 605.282,1652.8 613.949,1650.97 623.5,1653.5C 629.701,1656.72 633.034,1661.88 633.5,1669C 632.452,1679.44 627.785,1687.77 619.5,1694C 631.826,1700.81 637.826,1711.31 637.5,1725.5C 637.93,1736.66 633.264,1744.66 623.5,1749.5C 614.444,1751.19 606.111,1749.35 598.5,1744C 596.167,1742.17 593.833,1740.33 591.5,1738.5C 591.167,1739 590.833,1739.5 590.5,1740C 594.336,1753.88 592.836,1767.04 586,1779.5C 577.307,1787.94 569.307,1787.28 562,1777.5C 559.806,1774.45 558.139,1771.11 557,1767.5C 554.674,1774.48 552.507,1781.48 550.5,1788.5C 545.603,1808.55 542.436,1828.89 541,1849.5C 538.127,1855.02 534.46,1855.69 530,1851.5C 528.921,1848.29 528.421,1844.95 528.5,1841.5C 530.094,1822.27 533.094,1803.27 537.5,1784.5C 541.308,1772.61 544.808,1760.61 548,1748.5C 538.115,1755.8 527.948,1756.3 517.5,1750C 514.917,1746.93 512.584,1743.77 510.5,1740.5C 509.714,1728.57 514.381,1719.41 524.5,1713C 522.33,1711.41 519.996,1710.08 517.5,1709C 506.303,1700.29 503.969,1689.79 510.5,1677.5C 512.964,1675.43 515.631,1673.6 518.5,1672C 529.729,1671.46 540.062,1674.3 549.5,1680.5C 550.875,1682.07 552.541,1682.9 554.5,1683C 553.135,1674.13 553.635,1665.29 556,1656.5C 561.464,1641.7 569.797,1639.7 581,1650.5C 584.019,1656.57 586.185,1662.23 587.5,1667.5 Z"/></g>
<g><path style="opacity:0.993" fill="#0ed1d5" d="M 465.5,1750.5 C 453.016,1744.01 441.35,1736.34 430.5,1727.5C 430.217,1726.71 429.717,1726.04 429,1725.5C 428.5,1711.17 428.333,1696.84 428.5,1682.5C 435.443,1671.52 439.943,1659.52 442,1646.5C 443,1647.5 444,1648.5 445,1649.5C 452.948,1682.95 459.781,1716.62 465.5,1750.5 Z"/></g>
<g><path style="opacity:1" fill="#1ebeda" d="M 569.5,1657.5 C 571.328,1660.14 572.495,1663.14 573,1666.5C 573.834,1672.01 574.667,1677.51 575.5,1683C 573.548,1685.73 571.715,1688.56 570,1691.5C 565.575,1680.2 565.408,1668.86 569.5,1657.5 Z"/></g>
<g><path style="opacity:1" fill="#d5f3fb" d="M 1293.5,1656.5 C 1295.72,1656.18 1297.56,1656.84 1299,1658.5C 1299.27,1661.22 1299.77,1663.89 1300.5,1666.5C 1296.83,1708.43 1295,1750.43 1295,1792.5C 1294.5,1793 1294,1793.5 1293.5,1794C 1272.8,1794.89 1252.14,1796.22 1231.5,1798C 1223.5,1798.67 1215.5,1798.67 1207.5,1798C 1206.67,1797.17 1205.83,1796.33 1205,1795.5C 1199.52,1779.74 1194.86,1763.74 1191,1747.5C 1185.92,1724.1 1180.59,1700.77 1175,1677.5C 1174.25,1674.7 1174.58,1672.03 1176,1669.5C 1215.34,1665.94 1254.51,1661.6 1293.5,1656.5 Z"/></g>
<g><path style="opacity:0.998" fill="#527ee8" d="M 957.5,1651.5 C 966.167,1659.5 974.5,1667.83 982.5,1676.5C 982.5,1717.83 982.5,1759.17 982.5,1800.5C 974.311,1802.44 965.978,1804.1 957.5,1805.5C 957.5,1754.17 957.5,1702.83 957.5,1651.5 Z"/></g>
<g><path style="opacity:1" fill="#d4f1f9" d="M 1426.5,1661.5 C 1428.72,1661.18 1430.56,1661.84 1432,1663.5C 1434.18,1697.59 1433.18,1731.59 1429,1765.5C 1428.5,1766 1428,1766.5 1427.5,1767C 1412.56,1769.08 1397.56,1769.75 1382.5,1769C 1379.02,1762.24 1376.52,1755.07 1375,1747.5C 1370.27,1725.26 1364.61,1703.26 1358,1681.5C 1356.82,1677.73 1357.65,1674.56 1360.5,1672C 1382.58,1668.13 1404.58,1664.63 1426.5,1661.5 Z"/></g>
<g><path style="opacity:1" fill="#23b8db" d="M 611.5,1665.5 C 614.167,1665.5 616.833,1665.5 619.5,1665.5C 620.463,1672.77 618.13,1678.93 612.5,1684C 605.339,1690.25 597.006,1693.75 587.5,1694.5C 587.167,1694.17 586.833,1693.83 586.5,1693.5C 591.276,1681.05 599.609,1671.72 611.5,1665.5 Z"/></g>
<g><path style="opacity:1" fill="#04ded3" d="M 1114.5,1642.5 C 1124.83,1642.5 1135.17,1642.5 1145.5,1642.5C 1147.01,1649.89 1148.85,1657.22 1151,1664.5C 1154.39,1667.55 1158.05,1670.22 1162,1672.5C 1166.11,1685.61 1169.28,1698.95 1171.5,1712.5C 1167.17,1715.83 1162.83,1719.17 1158.5,1722.5C 1157.61,1721.74 1156.94,1720.74 1156.5,1719.5C 1158.71,1714.91 1161.05,1710.41 1163.5,1706C 1160.84,1699.13 1156.68,1697.96 1151,1702.5C 1149.17,1705.67 1147.33,1708.83 1145.5,1712C 1141.5,1712.33 1137.5,1712.67 1133.5,1713C 1129.41,1715.26 1125.74,1718.09 1122.5,1721.5C 1119.79,1719.12 1117.12,1716.78 1114.5,1714.5C 1114.5,1690.5 1114.5,1666.5 1114.5,1642.5 Z"/></g>
<g><path style="opacity:0.995" fill="#557ae8" d="M 982.5,1676.5 C 992.167,1685.5 1001.5,1694.83 1010.5,1704.5C 1010.83,1734.57 1010.49,1764.57 1009.5,1794.5C 1000.69,1797.26 991.691,1799.26 982.5,1800.5C 982.5,1759.17 982.5,1717.83 982.5,1676.5 Z"/></g>
<g><path style="opacity:1" fill="#1ac3d8" d="M 521.5,1684.5 C 533.883,1686.19 544.549,1691.36 553.5,1700C 544.385,1702.28 535.385,1701.94 526.5,1699C 520.499,1695.49 518.832,1690.66 521.5,1684.5 Z"/></g>
<g><path style="opacity:1" fill="#23b8db" d="M 602.5,1704.5 C 617.235,1704.07 624.568,1711.23 624.5,1726C 624.837,1735.33 620.504,1738.66 611.5,1736C 600.04,1729.55 590.04,1721.22 581.5,1711C 588.742,1709.28 595.742,1707.11 602.5,1704.5 Z"/></g>
<g><path style="opacity:1" fill="#1ac3d9" d="M 550.5,1714.5 C 551.833,1714.5 553.167,1714.5 554.5,1714.5C 552.409,1724.53 547.409,1732.69 539.5,1739C 534.959,1741.7 530.292,1742.03 525.5,1740C 522.869,1736.11 523.035,1732.28 526,1728.5C 533.105,1721.87 541.272,1717.2 550.5,1714.5 Z"/></g>
<g><path style="opacity:0.986" fill="#5975e9" d="M 1010.5,1704.5 C 1033.31,1725.48 1055.31,1747.31 1076.5,1770C 1055.24,1780.81 1032.91,1788.98 1009.5,1794.5C 1010.49,1764.57 1010.83,1734.57 1010.5,1704.5 Z"/></g>
<g><path style="opacity:1" fill="#1fbdda" d="M 568.5,1722.5 C 569.376,1722.37 570.043,1722.7 570.5,1723.5C 578.653,1738.07 580.819,1753.4 577,1769.5C 574.211,1772.13 572.211,1771.46 571,1767.5C 569.798,1764.23 568.798,1760.89 568,1757.5C 567.515,1745.83 567.681,1734.16 568.5,1722.5 Z"/></g>
<g><path style="opacity:1" fill="#1eb8d3" d="M 1136.5,1723.5 C 1140.93,1723.1 1144.77,1724.43 1148,1727.5C 1155.47,1735.71 1159.14,1745.38 1159,1756.5C 1153.63,1760.02 1148.63,1764.02 1144,1768.5C 1142.78,1772.35 1143.95,1775.02 1147.5,1776.5C 1151.21,1774.96 1154.55,1772.79 1157.5,1770C 1158.78,1769.32 1159.95,1769.48 1161,1770.5C 1161.74,1784.86 1161.41,1799.19 1160,1813.5C 1159.73,1815.33 1158.89,1816.83 1157.5,1818C 1148.5,1818.67 1139.5,1818.67 1130.5,1818C 1128.02,1814.61 1126.52,1810.77 1126,1806.5C 1122.75,1788.96 1121.41,1771.3 1122,1753.5C 1123.64,1747.18 1125.31,1740.85 1127,1734.5C 1130,1730.67 1133.17,1727 1136.5,1723.5 Z"/></g>
<g><path style="opacity:0.994" fill="#22b9db" d="M 623.5,1749.5 C 623.83,1768.01 623.497,1786.34 622.5,1804.5C 597.937,1801.59 573.937,1796.25 550.5,1788.5C 552.507,1781.48 554.674,1774.48 557,1767.5C 558.139,1771.11 559.806,1774.45 562,1777.5C 569.307,1787.28 577.307,1787.94 586,1779.5C 592.836,1767.04 594.336,1753.88 590.5,1740C 590.833,1739.5 591.167,1739 591.5,1738.5C 593.833,1740.33 596.167,1742.17 598.5,1744C 606.111,1749.35 614.444,1751.19 623.5,1749.5 Z"/></g>
<g><path style="opacity:0.992" fill="#19c4d8" d="M 510.5,1740.5 C 512.584,1743.77 514.917,1746.93 517.5,1750C 527.948,1756.3 538.115,1755.8 548,1748.5C 544.808,1760.61 541.308,1772.61 537.5,1784.5C 527.871,1781.01 518.538,1777.01 509.5,1772.5C 510.494,1762.01 510.828,1751.35 510.5,1740.5 Z"/></g>
<g><path style="opacity:1" fill="#d8f7fe" d="M 1647.5,1794.5 C 1653.13,1794.96 1655.63,1797.96 1655,1803.5C 1648.67,1817.5 1642.33,1831.5 1636,1845.5C 1633.86,1851.71 1632.2,1858.04 1631,1864.5C 1627,1871.17 1623,1871.17 1619,1864.5C 1619.11,1855.14 1621.11,1846.14 1625,1837.5C 1631.33,1824.17 1637.67,1810.83 1644,1797.5C 1645.15,1796.36 1646.31,1795.36 1647.5,1794.5 Z"/></g>
<g><path style="opacity:1" fill="#d8f7fe" d="M 1402.5,1805.5 C 1412.62,1805.31 1419.45,1809.98 1423,1819.5C 1424.57,1832.52 1420.41,1843.36 1410.5,1852C 1424.18,1852.25 1434.01,1858.41 1440,1870.5C 1442.21,1882.59 1437.71,1891.09 1426.5,1896C 1421.47,1896.17 1416.47,1896.67 1411.5,1897.5C 1420.73,1919.22 1424.9,1941.89 1424,1965.5C 1420,1972.17 1416,1972.17 1412,1965.5C 1411.47,1938.53 1405.47,1912.86 1394,1888.5C 1391.53,1903.57 1386.87,1917.9 1380,1931.5C 1369.36,1942.04 1361.03,1940.37 1355,1926.5C 1353.32,1915.81 1354.82,1905.64 1359.5,1896C 1354.35,1897.61 1349.02,1898.28 1343.5,1898C 1336,1894.5 1333.17,1888.67 1335,1880.5C 1340.32,1867.85 1349.49,1859.35 1362.5,1855C 1356,1849.17 1349.5,1843.33 1343,1837.5C 1338.53,1822.47 1344.2,1813.8 1360,1811.5C 1369.01,1812.91 1376.17,1817.25 1381.5,1824.5C 1386.35,1815.64 1393.35,1809.31 1402.5,1805.5 Z M 1405.5,1818.5 C 1409.01,1819.68 1410.68,1822.18 1410.5,1826C 1408.64,1835.05 1403.97,1842.38 1396.5,1848C 1393.42,1850.29 1390.25,1852.46 1387,1854.5C 1387.78,1841.83 1392.28,1830.66 1400.5,1821C 1402.31,1820.24 1403.98,1819.41 1405.5,1818.5 Z M 1358.5,1824.5 C 1366.41,1825.24 1370.91,1829.57 1372,1837.5C 1372.67,1840.5 1372.67,1843.5 1372,1846.5C 1366,1841.17 1360,1835.83 1354,1830.5C 1353.8,1827.23 1355.3,1825.23 1358.5,1824.5 Z M 1402.5,1865.5 C 1409.8,1864.97 1416.8,1866.13 1423.5,1869C 1428.77,1873.84 1428.77,1878.51 1423.5,1883C 1410.73,1884.63 1402.73,1879.29 1399.5,1867C 1400.74,1866.77 1401.74,1866.27 1402.5,1865.5 Z M 1369.5,1866.5 C 1372.23,1868.04 1374.9,1869.87 1377.5,1872C 1367.95,1877.19 1358.12,1881.69 1348,1885.5C 1348.87,1879.96 1351.7,1875.46 1356.5,1872C 1360.76,1869.7 1365.09,1867.87 1369.5,1866.5 Z M 1379.5,1888.5 C 1378.23,1900.88 1374.73,1912.88 1369,1924.5C 1366.59,1915.09 1367.92,1906.09 1373,1897.5C 1375.39,1894.62 1377.55,1891.62 1379.5,1888.5 Z"/></g>
<g><path style="opacity:1" fill="#d8f7fe" d="M 1578.5,1814.5 C 1582.49,1814.24 1585.33,1815.91 1587,1819.5C 1590.41,1829.72 1593.41,1840.05 1596,1850.5C 1597.17,1858.79 1596.17,1866.79 1593,1874.5C 1587.31,1880.22 1583.14,1879.22 1580.5,1871.5C 1582.96,1865.72 1583.79,1859.72 1583,1853.5C 1580.24,1842.55 1577.07,1831.72 1573.5,1821C 1574.28,1818.06 1575.95,1815.9 1578.5,1814.5 Z"/></g>
<g><path style="opacity:1" fill="#d8f7fe" d="M 1517.5,1827.5 C 1519.65,1827.37 1521.65,1827.87 1523.5,1829C 1530.97,1835.47 1538.14,1842.3 1545,1849.5C 1548.73,1854.79 1551.23,1860.62 1552.5,1867C 1550.62,1872.77 1546.96,1874.44 1541.5,1872C 1539.2,1866.78 1536.7,1861.61 1534,1856.5C 1527.14,1850.4 1520.48,1844.06 1514,1837.5C 1512.02,1833.12 1513.18,1829.79 1517.5,1827.5 Z"/></g>
<g><path style="opacity:1" fill="#d4f1f9" d="M 1118.5,1827.5 C 1139.19,1827.82 1159.85,1827.82 1180.5,1827.5C 1183.01,1827.29 1185.18,1827.95 1187,1829.5C 1186.9,1838.85 1186.24,1848.18 1185,1857.5C 1182.12,1873.46 1179.45,1889.46 1177,1905.5C 1176.5,1906 1176,1906.5 1175.5,1907C 1155.97,1907.43 1136.47,1908.26 1117,1909.5C 1114.85,1909.36 1113.18,1908.36 1112,1906.5C 1106.8,1882.83 1100.97,1859.33 1094.5,1836C 1095.1,1834.39 1096.1,1833.06 1097.5,1832C 1104.58,1830.27 1111.58,1828.77 1118.5,1827.5 Z"/></g>
<g><path style="opacity:1" fill="#d8f7fe" d="M 376.5,1847.5 C 380.025,1847.35 382.859,1848.68 385,1851.5C 392.755,1862.68 400.755,1873.68 409,1884.5C 415.255,1896.01 421.255,1907.68 427,1919.5C 427.771,1924.28 425.771,1927.28 421,1928.5C 418.501,1927.92 416.501,1926.58 415,1924.5C 404.252,1899.98 390.252,1877.64 373,1857.5C 371.018,1853.12 372.184,1849.79 376.5,1847.5 Z"/></g>
<g><path style="opacity:1" fill="#d8f7fe" d="M 585.5,1855.5 C 591.618,1856.12 594.118,1859.45 593,1865.5C 586.771,1880.63 581.104,1895.96 576,1911.5C 573.252,1921.07 571.919,1930.73 572,1940.5C 567.345,1947.2 563.011,1946.86 559,1939.5C 558.683,1930.38 559.683,1921.38 562,1912.5C 567.542,1894.08 574.208,1876.08 582,1858.5C 583.145,1857.36 584.312,1856.36 585.5,1855.5 Z"/></g>
<g><path style="opacity:1" fill="#d8f7fe" d="M 477.5,1899.5 C 481.09,1899.54 483.59,1901.21 485,1904.5C 486.458,1913.08 488.291,1921.58 490.5,1930C 487.553,1937.32 483.387,1938.15 478,1932.5C 475.099,1924.44 473.266,1916.11 472.5,1907.5C 472.672,1903.81 474.339,1901.14 477.5,1899.5 Z"/></g>
</svg>
